<svg width="50" height="49" viewBox="0 0 50 49" fill="none" xmlns="http://www.w3.org/2000/svg">
<g clip-path="url(#clip0_1_156)">
<path d="M6.41478 14.3865C6.39413 13.9274 6.85176 13.4675 7.35639 13.4675H8.73446C9.24105 13.4675 9.65148 13.8824 9.67607 14.431C9.69671 14.8901 9.23908 15.3497 8.73446 15.3497H7.35639C6.84926 15.3497 6.43908 14.9348 6.41478 14.3865Z" fill="#DD9933" stroke="#DD9933"/>
<path fill-rule="evenodd" clip-rule="evenodd" d="M44.8911 8.91185C44.935 8.91185 44.979 8.91163 45.0229 8.9114C45.1107 8.91094 45.1985 8.91048 45.2864 8.91185C45.2893 8.91185 45.3029 8.91259 45.3211 8.91358C45.3325 8.91419 45.3456 8.91491 45.3592 8.9156C45.3676 8.91604 45.3762 8.91646 45.3845 8.91685C45.4043 8.92187 45.424 8.92772 45.4437 8.93358C45.4668 8.94044 45.4898 8.94729 45.5131 8.9528C45.5536 8.97666 45.5952 9.00061 45.6362 9.02287C45.6575 9.04539 45.6785 9.06882 45.6995 9.09232C45.7256 9.12137 45.7517 9.15049 45.7783 9.17805C45.7888 9.19715 45.7996 9.21625 45.8106 9.23532C45.8181 9.283 45.8396 9.3432 45.8588 9.39726C45.8641 9.4121 45.8692 9.42648 45.8738 9.44001C45.8742 9.45662 45.8745 9.47162 45.8746 9.48169C45.8747 9.48876 45.8748 9.49341 45.8748 9.49447V9.50476C45.875 9.52096 45.8749 9.53715 45.8749 9.55335L45.8748 9.57764C45.875 9.64819 45.8749 9.71873 45.8749 9.78928L45.8748 9.89509V13.0375V22.1324V22.9554H42.8065H39.6402C39.6219 22.9549 39.6037 22.9549 39.5856 22.9554H37.9162H31.9756H25.44H18.8427H13.0469C12.7516 22.9544 12.4562 22.9523 12.1607 22.9501C11.3639 22.9443 10.5667 22.9385 9.77103 22.9554H7.53957H3.79765C3.66257 22.9554 3.52735 22.9547 3.39207 22.9538V17.0605C3.39207 16.2208 3.38749 15.3807 3.38292 14.5405C3.37377 12.8597 3.36462 11.1783 3.39207 9.49887C3.3922 9.4898 3.39351 9.47298 3.39504 9.45334C3.3965 9.43472 3.39815 9.41356 3.39917 9.39407C3.40523 9.37374 3.41344 9.3517 3.42182 9.32916C3.43343 9.29795 3.44539 9.26582 3.45247 9.23606C3.46173 9.22186 3.47212 9.20718 3.48266 9.19228C3.50227 9.16457 3.52243 9.13609 3.53678 9.10862C3.56221 9.08299 3.5886 9.05846 3.61498 9.03393L3.62314 9.02633C3.66308 9.00473 3.70301 8.98195 3.74284 8.95922L3.75759 8.95081C3.80017 8.94065 3.84299 8.92949 3.88575 8.91834L3.91299 8.91124C3.93023 8.91144 3.95105 8.91135 3.97592 8.91091H3.98828C4.11924 8.90898 4.25021 8.90963 4.38105 8.91027C4.44642 8.91059 4.51177 8.91091 4.57706 8.91091H7.86731H18.347C19.1261 8.91091 19.9053 8.91342 20.6846 8.91594C22.2433 8.92097 23.8022 8.926 25.3606 8.91091C25.3861 8.91063 25.4116 8.91072 25.4372 8.91082L25.4759 8.91091C26.2298 8.91091 26.952 8.248 26.917 7.4698C26.882 6.68914 26.2837 6.02869 25.4759 6.02869H19.4706H8.76556H5.00267H4.10013C3.14612 6.02869 2.2452 6.34944 1.55184 7.0181C0.829228 7.71477 0.510132 8.67287 0.510132 9.6582V10.8782V15.5696V24.1319C0.497819 24.2186 0.496427 24.3076 0.507615 24.3983L0.510336 24.4203C0.512035 24.5189 0.524291 24.6155 0.545997 24.709L0.847307 27.1487C0.863542 27.28 0.877785 27.4131 0.892096 27.5469C0.928598 27.8881 0.965543 28.2334 1.03712 28.5626C1.26934 29.6278 2.03642 30.6213 2.99788 31.1311C3.94587 31.6339 4.90762 31.6296 5.91771 31.6252C6.01274 31.6248 6.10821 31.6243 6.20412 31.6243H10.3614H16.5232H23.7385H31.0391H35.7916C36.0282 31.6255 36.265 31.6273 36.5019 31.6291C37.2532 31.6348 38.005 31.6405 38.7553 31.6243H42.2871C42.5134 31.6243 42.7397 31.6251 42.9661 31.6259C43.4189 31.6274 43.8723 31.629 44.3248 31.6243C46.1414 31.6058 47.9004 30.3232 48.2417 28.4848C48.3733 27.776 48.4507 27.0518 48.5277 26.3304C48.563 26.0001 48.5983 25.6702 48.6386 25.3428L48.6973 24.8673L48.7056 24.7995C48.7379 24.6895 48.7556 24.5745 48.756 24.4565C48.7568 24.4366 48.7573 24.4166 48.7573 24.3966V24.3781C48.7611 24.3362 48.7609 24.2928 48.7573 24.2485V18.0364V9.91557C48.7573 9.4149 48.756 8.90845 48.5876 8.4284C48.2953 7.59504 47.7168 6.82749 46.9094 6.43148C46.2572 6.11156 45.6074 6.02921 44.8918 6.02921C44.1379 6.02921 43.4157 6.69212 43.4507 7.47032C43.4848 8.2514 44.0833 8.91185 44.8911 8.91185ZM40.4741 28.7418H42.8986H44.0153L44.1051 28.7419C44.1649 28.742 44.2247 28.742 44.2846 28.7418L44.3019 28.7419C44.3136 28.742 44.3253 28.742 44.3369 28.7418L44.365 28.7415C44.3836 28.7415 44.4022 28.7414 44.4233 28.7405C44.4409 28.7398 44.4584 28.7385 44.476 28.7373L44.4849 28.7366C44.5556 28.7216 44.6257 28.706 44.6959 28.685C44.7154 28.6791 44.7379 28.6698 44.7612 28.6601C44.7757 28.6541 44.7905 28.648 44.805 28.6425L44.8269 28.6307C44.8767 28.604 44.9264 28.5773 44.9742 28.547C44.9851 28.5402 44.9958 28.5331 45.0063 28.5259C45.0328 28.498 45.0624 28.4721 45.0919 28.4462C45.1216 28.4202 45.1512 28.3942 45.1776 28.3663L45.1808 28.3628C45.1707 28.3815 45.1595 28.4025 45.1472 28.4264C45.1571 28.4075 45.1708 28.39 45.1844 28.3726C45.1945 28.3596 45.2046 28.3467 45.2131 28.3333C45.2678 28.2464 45.3185 28.16 45.3687 28.071L45.3696 28.0695C45.3982 27.9788 45.4259 27.8887 45.4465 27.7956C45.4527 27.7672 45.4615 27.7139 45.468 27.675L45.5007 27.4104L45.5392 27.0985L45.6946 25.8398C45.6187 25.8395 45.5428 25.8394 45.4669 25.8394H41.725H40.8325C40.758 26.4427 40.6835 27.046 40.609 27.6493C40.564 28.0134 40.5191 28.3776 40.4741 28.7418ZM36.3634 25.8394C36.6091 25.8405 36.8548 25.8423 37.1005 25.8441C37.3834 25.8461 37.6663 25.8482 37.9492 25.8492C37.9047 26.2095 37.8603 26.5697 37.8158 26.93C37.7412 27.5336 37.6666 28.1373 37.5921 28.741H36.0134H29.2209H21.0096H13.9107C13.5279 28.741 13.1443 28.7366 12.7603 28.7322C12.3961 28.7281 12.0317 28.7239 11.6674 28.7235C11.6232 28.3654 11.579 28.0073 11.5348 27.6493C11.4603 27.046 11.3858 26.4427 11.3113 25.8394H11.3484H17.289H23.8246H30.4219H36.3634ZM8.42893 25.8394H6.4581H3.56788L3.71716 27.0495L3.75711 27.3732L3.79704 27.6968L3.79911 27.7133L3.80033 27.719C3.82545 27.8351 3.8518 27.9483 3.88968 28.0612L3.89201 28.0681L3.89421 28.0719C3.91105 28.1003 3.92716 28.1292 3.94326 28.158C3.97045 28.2067 3.99766 28.2554 4.02844 28.3024L4.03635 28.314C4.06013 28.3371 4.08519 28.3604 4.11055 28.3841C4.16091 28.4311 4.21244 28.4791 4.25746 28.5281C4.3164 28.5663 4.37709 28.5994 4.43804 28.6325C4.42176 28.6294 4.4041 28.6264 4.38501 28.6236C4.4125 28.6275 4.44655 28.6412 4.47798 28.6542L4.51965 28.6771C4.57214 28.7063 4.60494 28.7069 4.60167 28.6951C4.64962 28.7079 4.6979 28.719 4.74624 28.73L4.75807 28.7327L4.77988 28.7352C4.80064 28.7376 4.82101 28.7399 4.83916 28.7405C4.85786 28.7411 4.87674 28.7413 4.89568 28.7415L4.92398 28.7418C4.93548 28.742 4.9468 28.742 4.95817 28.7419L4.97545 28.7418C5.4635 28.7437 5.95176 28.7431 6.43996 28.7424C6.68402 28.7421 6.92812 28.7418 7.17211 28.7418H8.78735C8.7128 28.1378 8.63821 27.5339 8.56362 26.93C8.51872 26.5664 8.47382 26.2029 8.42893 25.8394ZM4.60167 28.6951C4.57767 28.6887 4.55375 28.6818 4.52995 28.6742C4.5157 28.6697 4.49879 28.6627 4.48093 28.6554L4.47798 28.6542L4.44489 28.6362L4.43804 28.6325C4.55081 28.654 4.59808 28.6821 4.60167 28.6951ZM45.1808 28.3628C45.2378 28.2586 45.2619 28.2327 45.2597 28.2458C45.2574 28.2589 45.229 28.311 45.1808 28.3628ZM45.8691 9.33735L45.8699 9.34363C45.8697 9.34084 45.8694 9.3387 45.8691 9.33735ZM45.4345 27.9518C45.4306 27.9824 45.4298 27.9899 45.4304 27.9857C45.4307 27.9834 45.4314 27.9777 45.4323 27.9704C45.433 27.9649 45.4337 27.9585 45.4345 27.9518Z" fill="#DD9933"/>
<path d="M40.5915 6.46087C40.4503 6.6462 40.309 6.83182 40.1676 7.01749C39.9819 7.26145 39.7961 7.50548 39.6107 7.74896L39.417 8.00314C39.7319 8.12149 40.0553 8.2204 40.3857 8.29831L40.5915 6.46087ZM40.5915 6.46087C40.6194 6.45752 40.6477 6.45518 40.6764 6.45389C40.7099 6.45238 40.7434 6.45342 40.7767 6.45684M40.5915 6.46087L40.7767 6.45684ZM41.449 6.90636C41.571 7.12184 41.6182 7.39413 41.5561 7.66734C41.4543 8.11474 40.912 8.4222 40.3857 8.29831L41.449 6.90636ZM41.449 6.90636C41.3398 6.73172 41.1788 6.59093 40.9988 6.51492ZM41.449 6.90636L40.9988 6.51492ZM40.9988 6.51492C40.9739 6.50611 40.9483 6.4986 40.9223 6.49247C40.8739 6.48102 40.825 6.46908 40.7767 6.45684M40.9988 6.51492L40.7767 6.45684ZM37.442 10.4456C37.5595 10.3105 37.6812 10.18 37.8071 10.0537C37.9222 9.93854 38.0418 9.82654 38.1635 9.71931C38.2245 9.66574 38.2867 9.6128 38.3482 9.56173L38.349 9.56107C38.3917 9.52574 38.4277 9.49703 38.4551 9.47734C38.4618 9.47251 38.4747 9.46338 38.4903 9.45364C38.4971 9.44942 38.5139 9.4391 38.5361 9.42819C38.5441 9.42428 38.5583 9.4175 38.5771 9.41026C38.6206 9.3806 38.6654 9.34943 38.7127 9.31657C38.7223 9.30985 38.7321 9.30306 38.742 9.29621C38.8732 9.20503 39.023 9.10186 39.1861 9.00978C39.1955 9.00446 39.2051 8.99912 39.2145 8.99384C39.0706 8.94263 38.9282 8.88782 38.7875 8.82954L38.7129 8.92741V8.79827C38.2128 8.58586 37.7341 8.32941 37.2819 8.03407C36.7238 8.46656 36.2212 8.96922 35.7887 9.52731C36.0841 9.97949 36.3406 10.4582 36.553 10.9584H36.6821L36.5842 11.0329C36.6424 11.1735 36.6972 11.3157 36.7483 11.4594C36.8763 11.2313 37.0164 11.0166 37.1579 10.8117C37.1615 10.8032 37.1648 10.7961 37.1674 10.7906C37.1754 10.7737 37.1828 10.7606 37.1868 10.7536C37.1914 10.7457 37.1954 10.7392 37.1983 10.7346C37.204 10.7255 37.2092 10.718 37.2126 10.7131C37.2195 10.7031 37.2264 10.6937 37.2317 10.6865C37.2428 10.6716 37.2555 10.6551 37.2673 10.64C37.2794 10.6246 37.2923 10.6084 37.3043 10.5937L37.3228 10.5714C37.3285 10.5647 37.3362 10.5557 37.3445 10.5465C37.3485 10.5421 37.3551 10.5349 37.3631 10.5268C37.3672 10.5227 37.3733 10.5166 37.3809 10.5097C37.3856 10.5053 37.3939 10.4977 37.4051 10.4886C37.417 10.4745 37.4294 10.4601 37.442 10.4456ZM37.442 10.4456C37.442 10.4456 37.4421 10.4455 37.442 10.4456L37.4525 10.4544ZM37.442 10.4456C37.442 10.4456 37.4421 10.4455 37.442 10.4456L37.4525 10.4544ZM37.4525 10.4544C37.4526 10.4543 37.4524 10.4545 37.4525 10.4544ZM37.4525 10.4544C37.4558 10.4523 37.4592 10.4502 37.4627 10.448C37.4727 10.442 37.4858 10.4345 37.5016 10.4268C37.517 10.4193 37.5386 10.4096 37.5652 10.4009C37.5911 10.3923 37.6295 10.382 37.6773 10.3777C37.725 10.3734 37.7931 10.3743 37.87 10.3982C37.8999 10.4084 37.9591 10.4356 37.9882 10.4525C38.0069 10.4652 38.0358 10.4885 38.0603 10.5099L37.4525 10.4544ZM37.4525 10.4544L37.5231 10.5159C37.5233 10.5159 37.5229 10.5159 37.5231 10.5159M37.4525 10.4544L37.5231 10.5159ZM37.2819 6.80723C37.8834 6.41431 38.532 6.09023 39.2155 5.8471C38.9868 5.71894 38.7717 5.57853 38.5664 5.43674C38.5579 5.43316 38.5508 5.4299 38.5453 5.4273C38.5284 5.41929 38.5153 5.41191 38.5083 5.40784C38.5004 5.40328 38.4939 5.39924 38.4893 5.39633C38.4802 5.39062 38.4727 5.38548 38.4678 5.38208C38.4578 5.37517 38.4484 5.36829 38.4412 5.36295C38.4262 5.35187 38.4098 5.33919 38.3947 5.32734C38.3793 5.31526 38.3631 5.30234 38.3484 5.29032L38.3261 5.27186C38.3194 5.26615 38.3104 5.25847 38.3012 5.25016C38.2968 5.24612 38.2896 5.23956 38.2815 5.23152C38.2774 5.22744 38.2713 5.22135 38.2644 5.21381C38.26 5.20911 38.2524 5.20073 38.2433 5.18954C38.2292 5.17763 38.2148 5.16527 38.2003 5.15262L37.2819 6.80723ZM37.2819 6.80723C36.7238 6.37472 36.2211 5.87205 35.7886 5.31394ZM37.2819 6.80723L35.7886 5.31394ZM37.5231 10.5159C37.5171 10.517 37.5111 10.5181 37.5071 10.519C37.4955 10.5218 37.4738 10.5278 37.4637 10.531C37.4549 10.534 37.4384 10.5401 37.4307 10.5431C37.4119 10.5508 37.3964 10.5584 37.3848 10.5646C37.3729 10.5708 37.363 10.5768 37.3551 10.5816C37.3472 10.5866 37.3403 10.5912 37.3347 10.595C37.3238 10.6026 37.315 10.6094 37.309 10.6142C37.3047 10.6176 37.3008 10.6208 37.2976 10.6235L37.5231 10.5159ZM35.7886 5.31394C36.084 4.8618 36.3404 4.38309 36.5528 3.88294H36.682L36.5841 3.80838C36.6425 3.66738 36.6974 3.52471 36.7487 3.38048C36.7539 3.38981 36.7592 3.39913 36.7644 3.40844C36.8564 3.57154 36.9597 3.72148 37.0509 3.85269C37.0578 3.86256 37.0645 3.87231 37.0712 3.88196C37.1041 3.92923 37.1353 3.97404 37.165 4.01755C37.1722 4.03631 37.179 4.05056 37.1829 4.05852C37.1938 4.08075 37.2041 4.09755 37.2083 4.10433C37.2181 4.11999 37.2272 4.13285 37.232 4.13957C37.2517 4.16694 37.2804 4.20299 37.3158 4.24569C37.3669 4.30713 37.4198 4.36945 37.4734 4.43049C37.5806 4.55223 37.6926 4.67179 37.8077 4.78691C37.9339 4.91276 38.0653 5.03519 38.2003 5.15262L35.7886 5.31394ZM33.6012 11.4622C33.6527 11.3175 33.7077 11.1744 33.7663 11.0329L33.6684 10.9584H33.7976C34.01 10.4582 34.2665 9.97948 34.5618 9.52734C34.1293 8.96926 33.6266 8.46657 33.0685 8.03405C32.6164 8.3294 32.1377 8.58585 31.6375 8.79826V8.92756L31.5629 8.82957C31.4217 8.88804 31.2788 8.94301 31.1344 8.99437C31.3486 9.11465 31.5576 9.25622 31.7464 9.3848C31.752 9.38786 31.7568 9.39056 31.7602 9.39253C31.7998 9.41534 31.8941 9.47651 31.9594 9.5286L33.6012 11.4622ZM33.6012 11.4622C33.5149 11.309 33.4143 11.1663 33.3303 11.047C33.3246 11.039 33.3191 11.0311 33.3136 11.0234C33.2736 10.9665 33.2373 10.9144 33.2044 10.8652C33.1885 10.8291 33.1726 10.7999 33.1642 10.7846C33.1412 10.7427 33.1055 10.6836 33.0596 10.6273C33.005 10.5604 32.9492 10.4944 32.8921 10.4293L33.6012 11.4622ZM33.0686 6.80719C32.6164 6.51178 32.1376 6.25529 31.6375 6.0429V5.91388L31.563 6.01166C31.4216 5.95309 31.2785 5.89804 31.1339 5.84662C31.1434 5.84131 31.1529 5.83598 31.1623 5.83064C31.3254 5.73856 31.4754 5.63534 31.6066 5.54416C31.6165 5.5373 31.6262 5.53052 31.6359 5.52381C31.6831 5.49094 31.7279 5.45977 31.7715 5.43011C31.7902 5.42287 31.8045 5.41609 31.8124 5.41219C31.8346 5.40127 31.8515 5.39095 31.8582 5.38673C31.8739 5.37699 31.8868 5.36786 31.8935 5.36302C31.9208 5.34334 31.9569 5.31463 31.9996 5.2793L32.0004 5.27863C32.0618 5.22757 32.1234 5.17523 32.1844 5.12165C32.3061 5.01441 32.4257 4.90244 32.5408 4.78732C32.6667 4.66097 32.789 4.52987 32.9065 4.39481C32.9064 4.39487 32.9066 4.39474 32.9065 4.39481L32.8965 4.38573C32.9108 4.37658 32.922 4.36838 32.9295 4.36271C32.9345 4.3589 32.9392 4.35522 32.9434 4.35175M33.0686 6.80719L32.9902 4.29595L32.9875 4.29917C32.9739 4.31554 32.959 4.33331 32.9434 4.35175M33.0686 6.80719C33.6266 6.37469 34.1293 5.87203 34.5618 5.31394C34.2665 4.8618 34.01 4.38309 33.7976 3.88294H33.6683L33.7663 3.8083C33.7077 3.66689 33.6527 3.5238 33.6012 3.37914C33.473 3.60799 33.3325 3.82326 33.1906 4.02865M33.0686 6.80719L33.1906 4.02865ZM32.9434 4.35175C32.9546 4.34264 32.963 4.33503 32.9677 4.3307C32.9753 4.32373 32.9813 4.3177 32.9854 4.31357C32.9935 4.30544 33 4.2983 33.0041 4.29384C33.0124 4.28466 33.0201 4.27569 33.0258 4.26893L33.0442 4.24667C33.0562 4.23197 33.0692 4.21579 33.0812 4.20038C33.0931 4.18527 33.1058 4.16881 33.1169 4.15388C33.1222 4.14669 33.1291 4.13728 33.136 4.12728C33.1394 4.12238 33.1445 4.11482 33.1502 4.1058C33.1531 4.10121 33.1572 4.09468 33.1617 4.08679C33.1658 4.07975 33.1732 4.06665 33.1812 4.04976C33.1838 4.0443 33.1871 4.03717 33.1906 4.02865M32.9434 4.35175L33.1906 4.02865ZM38.7129 7.44597V7.69938C38.5356 7.61271 38.3617 7.51969 38.1915 7.42065C38.3672 7.3184 38.5469 7.22258 38.7301 7.13353C38.7188 7.2186 38.7129 7.306 38.7129 7.39551V7.44597ZM38.3599 9.57422C38.3665 9.56552 38.372 9.5588 38.3758 9.55437L38.4608 9.69615L38.463 9.69992L38.6297 9.97804C38.5841 10.0164 38.5388 10.0552 38.494 10.0945C38.4545 10.1293 38.4153 10.1646 38.3765 10.2003C38.3088 10.1205 38.2739 10.0282 38.2624 9.94492C38.2567 9.90314 38.2568 9.86415 38.2602 9.82905C38.2602 9.82934 38.2602 9.82876 38.2602 9.82905C38.27 9.73039 38.3059 9.66175 38.3125 9.64931C38.3129 9.64869 38.3131 9.64821 38.3133 9.64787C38.3289 9.61754 38.3461 9.59246 38.3592 9.57504C38.3594 9.57477 38.3597 9.57449 38.3599 9.57422ZM35.4541 10.9584H35.2005H35.1499H34.8965C34.9832 10.781 35.0762 10.6071 35.1753 10.4369C35.2743 10.6071 35.3674 10.781 35.4541 10.9584ZM37.3091 4.21888L37.4508 4.13392L37.4546 4.13164L37.7327 3.96494C37.771 4.01055 37.8099 4.05587 37.8492 4.10067C37.884 4.1402 37.9193 4.17938 37.955 4.21818C37.8752 4.28593 37.7829 4.32076 37.6996 4.33222C37.6578 4.33797 37.6188 4.3379 37.5837 4.3345C37.584 4.33453 37.5835 4.33447 37.5837 4.3345C37.485 4.32478 37.4164 4.28871 37.404 4.28212C37.4034 4.28179 37.4029 4.28154 37.4026 4.28136C37.3722 4.26572 37.3472 4.24858 37.3297 4.23543C37.3295 4.23522 37.3292 4.23501 37.3289 4.2348C37.3202 4.22821 37.3135 4.22266 37.3091 4.21888ZM36.1795 1.97048C35.9547 2.14177 35.7302 2.31265 35.5057 2.48358C35.3956 2.56741 35.2854 2.65126 35.1752 2.73517C35.041 2.63294 34.9067 2.53068 34.7723 2.42843C34.5717 2.27566 34.3711 2.12292 34.1708 1.97042C34.1977 1.87152 34.2228 1.77243 34.2463 1.67325C34.3319 1.31061 34.7422 1 35.1494 1H35.2C35.6092 1 36.0174 1.30996 36.103 1.67296C36.1267 1.77328 36.1523 1.87242 36.1795 1.97048ZM35.5773 12.4122C35.7776 12.5648 35.9779 12.7173 36.1779 12.8695C36.1509 12.9686 36.1258 13.0678 36.1023 13.1671C36.0167 13.5298 35.6064 13.8404 35.1992 13.8404H35.1486C34.7398 13.8404 34.3314 13.5305 34.2456 13.1677C34.2223 13.0685 34.1973 12.9697 34.1704 12.8712C34.3955 12.6997 34.6202 12.5286 34.845 12.3575C34.955 12.2738 35.0651 12.19 35.1752 12.1061C35.3092 12.2081 35.4432 12.3102 35.5773 12.4122ZM31.6876 9.95245C31.7373 9.99378 31.7866 10.0356 31.8352 10.078C31.8558 10.096 31.8762 10.1141 31.8965 10.1322C31.9241 10.097 31.9487 10.0554 31.9682 10.0061C31.9841 9.96606 31.9936 9.92741 31.9987 9.89104C31.9987 9.89133 31.9987 9.89075 31.9987 9.89104C32.0172 9.75645 31.9745 9.65249 31.9628 9.62512C31.9545 9.60596 31.9458 9.58893 31.9374 9.5743L31.6876 9.95245ZM31.9677 9.53531C31.9667 9.53452 31.9657 9.53372 31.9648 9.53292L32.8921 10.4293C32.7791 10.3005 32.6617 10.1751 32.5404 10.0539C32.4195 9.93297 32.2944 9.81532 32.1643 9.70158C32.1001 9.64568 32.0344 9.59007 31.9685 9.53598L31.9677 9.53531ZM35.2005 3.88294H35.4539C35.3673 4.06023 35.2743 4.23413 35.1752 4.40433C35.0762 4.23413 34.9832 4.06023 34.8965 3.88294H35.1499H35.2005ZM29.4269 6.49202C29.5272 6.46835 29.6264 6.44277 29.7244 6.41552C29.8959 6.64061 30.0669 6.86528 30.238 7.09001C30.3219 7.20018 30.4058 7.31037 30.4897 7.42063C30.3875 7.55493 30.2852 7.6893 30.1829 7.82366C30.0303 8.02413 29.8777 8.22455 29.7253 8.42458C29.6262 8.39753 29.5267 8.37232 29.427 8.34877C29.065 8.26356 28.7539 7.8528 28.7539 7.4457V7.39506C28.7539 6.98585 29.0639 6.57765 29.4269 6.49202ZM32.159 7.4206C31.9888 7.51965 31.8148 7.61268 31.6375 7.69937V7.44597V7.39532V7.14179C31.8148 7.22848 31.9888 7.32152 32.159 7.4206ZM30.7164 5.70965C30.6352 5.68522 30.5536 5.66191 30.4715 5.63976L30.7164 5.70965ZM32.8547 10.7942L33.0134 10.6649C33.028 10.6737 33.0408 10.6825 33.0517 10.6906L32.8547 10.7942ZM33.0134 10.6649L32.8527 10.7952L32.6417 10.9062C32.6006 10.8566 32.5588 10.8076 32.5163 10.759C32.4963 10.7363 32.4763 10.7137 32.4561 10.6913C32.5007 10.6579 32.5539 10.6298 32.6162 10.6119C32.6465 10.6031 32.6756 10.5978 32.7033 10.5949C32.7999 10.5849 32.8783 10.6057 32.9224 10.6214C32.9574 10.6339 32.9883 10.6498 33.0134 10.6649ZM31.9887 5.26614C31.9821 5.27484 31.9766 5.28156 31.9728 5.28599L31.8878 5.14423L31.8856 5.14044L31.7188 4.86232C31.7645 4.82401 31.8098 4.78519 31.8546 4.74586C31.8941 4.71105 31.9333 4.67578 31.9721 4.64009C32.0398 4.71985 32.0747 4.8122 32.0861 4.89549C32.0919 4.93725 32.0918 4.97623 32.0884 5.01132C32.0884 5.01103 32.0884 5.01161 32.0884 5.01132C32.0787 5.10998 32.0426 5.17862 32.036 5.19105C32.0357 5.19167 32.0354 5.19214 32.0353 5.19249C32.0196 5.22282 32.0025 5.2479 31.9893 5.26532C31.9891 5.2656 31.9889 5.26587 31.9887 5.26614Z" fill="#DD9933"/>
<path d="M40.5915 6.46087C40.4503 6.6462 40.309 6.83182 40.1676 7.01749C39.9819 7.26145 39.7961 7.50548 39.6107 7.74896L39.417 8.00314C39.7319 8.12149 40.0553 8.2204 40.3857 8.29831M40.5915 6.46087L40.3857 8.29831M40.5915 6.46087C40.6194 6.45752 40.6477 6.45518 40.6764 6.45389C40.7099 6.45238 40.7434 6.45342 40.7767 6.45684M40.5915 6.46087L40.7767 6.45684M40.3857 8.29831C40.912 8.4222 41.4543 8.11474 41.5561 7.66734C41.6182 7.39413 41.571 7.12184 41.449 6.90636M40.3857 8.29831L41.449 6.90636M40.7767 6.45684C40.825 6.46908 40.8739 6.48102 40.9223 6.49247C40.9483 6.4986 40.9739 6.50611 40.9988 6.51492M40.7767 6.45684L40.9988 6.51492M41.449 6.90636C41.3398 6.73172 41.1788 6.59093 40.9988 6.51492M41.449 6.90636L40.9988 6.51492M37.442 10.4456C37.5595 10.3105 37.6812 10.18 37.8071 10.0537C37.9222 9.93854 38.0418 9.82654 38.1635 9.71931C38.2245 9.66574 38.2867 9.6128 38.3482 9.56173L38.349 9.56107C38.3917 9.52574 38.4277 9.49703 38.4551 9.47734C38.4618 9.47251 38.4747 9.46338 38.4903 9.45364C38.4971 9.44942 38.5139 9.4391 38.5361 9.42819C38.5441 9.42428 38.5583 9.4175 38.5771 9.41026C38.6206 9.3806 38.6654 9.34943 38.7127 9.31657C38.7223 9.30985 38.7321 9.30306 38.742 9.29621C38.8732 9.20503 39.023 9.10186 39.1861 9.00978C39.1955 9.00446 39.2051 8.99912 39.2145 8.99384C39.0706 8.94263 38.9282 8.88782 38.7875 8.82954L38.7129 8.92741V8.79827C38.2128 8.58586 37.7341 8.32941 37.2819 8.03407C36.7238 8.46656 36.2212 8.96922 35.7887 9.52731C36.0841 9.97949 36.3406 10.4582 36.553 10.9584H36.6821L36.5842 11.0329C36.6424 11.1735 36.6972 11.3157 36.7483 11.4594C36.8763 11.2313 37.0164 11.0166 37.1579 10.8117C37.1615 10.8032 37.1648 10.7961 37.1674 10.7906C37.1754 10.7737 37.1828 10.7606 37.1868 10.7536C37.1914 10.7457 37.1954 10.7392 37.1983 10.7346C37.204 10.7255 37.2092 10.718 37.2126 10.7131C37.2195 10.7031 37.2264 10.6937 37.2317 10.6865C37.2428 10.6716 37.2555 10.6551 37.2673 10.64C37.2794 10.6246 37.2923 10.6084 37.3043 10.5937L37.3228 10.5714C37.3285 10.5647 37.3362 10.5557 37.3445 10.5465C37.3485 10.5421 37.3551 10.5349 37.3631 10.5268C37.3672 10.5227 37.3733 10.5166 37.3809 10.5097C37.3856 10.5053 37.3939 10.4977 37.4051 10.4886C37.417 10.4745 37.4294 10.4601 37.442 10.4456ZM37.442 10.4456C37.4421 10.4455 37.442 10.4456 37.442 10.4456ZM37.442 10.4456L37.4525 10.4544M37.4525 10.4544C37.4524 10.4545 37.4526 10.4543 37.4525 10.4544ZM37.4525 10.4544C37.4558 10.4523 37.4592 10.4502 37.4627 10.448C37.4727 10.442 37.4858 10.4345 37.5016 10.4268C37.517 10.4193 37.5386 10.4096 37.5652 10.4009C37.5911 10.3923 37.6295 10.382 37.6773 10.3777C37.725 10.3734 37.7931 10.3743 37.87 10.3982C37.8999 10.4084 37.9591 10.4356 37.9882 10.4525C38.0069 10.4652 38.0358 10.4885 38.0603 10.5099L37.4525 10.4544ZM37.4525 10.4544L37.5231 10.5159M37.5231 10.5159C37.5229 10.5159 37.5233 10.5159 37.5231 10.5159ZM37.5231 10.5159C37.5171 10.517 37.5111 10.5181 37.5071 10.519C37.4955 10.5218 37.4738 10.5278 37.4637 10.531C37.4549 10.534 37.4384 10.5401 37.4307 10.5431C37.4119 10.5508 37.3964 10.5584 37.3848 10.5646C37.3729 10.5708 37.363 10.5768 37.3551 10.5816C37.3472 10.5866 37.3403 10.5912 37.3347 10.595C37.3238 10.6026 37.315 10.6094 37.309 10.6142C37.3047 10.6176 37.3008 10.6208 37.2976 10.6235L37.5231 10.5159ZM37.2819 6.80723C37.8834 6.41431 38.532 6.09023 39.2155 5.8471C38.9868 5.71894 38.7717 5.57853 38.5664 5.43674C38.5579 5.43316 38.5508 5.4299 38.5453 5.4273C38.5284 5.41929 38.5153 5.41191 38.5083 5.40784C38.5004 5.40328 38.4939 5.39924 38.4893 5.39633C38.4802 5.39062 38.4727 5.38548 38.4678 5.38208C38.4578 5.37517 38.4484 5.36829 38.4412 5.36295C38.4262 5.35187 38.4098 5.33919 38.3947 5.32734C38.3793 5.31526 38.3631 5.30234 38.3484 5.29032L38.3261 5.27186C38.3194 5.26615 38.3104 5.25847 38.3012 5.25016C38.2968 5.24612 38.2896 5.23956 38.2815 5.23152C38.2774 5.22744 38.2713 5.22135 38.2644 5.21381C38.26 5.20911 38.2524 5.20073 38.2433 5.18954C38.2292 5.17763 38.2148 5.16527 38.2003 5.15262M37.2819 6.80723L38.2003 5.15262M37.2819 6.80723C36.7238 6.37472 36.2211 5.87205 35.7886 5.31394M37.2819 6.80723L35.7886 5.31394M38.2003 5.15262C38.0653 5.03519 37.9339 4.91276 37.8077 4.78691C37.6926 4.67179 37.5806 4.55223 37.4734 4.43049C37.4198 4.36945 37.3669 4.30713 37.3158 4.24569C37.2804 4.20299 37.2517 4.16694 37.232 4.13957C37.2272 4.13285 37.2181 4.11999 37.2083 4.10433C37.2041 4.09755 37.1938 4.08075 37.1829 4.05852C37.179 4.05056 37.1722 4.03631 37.165 4.01755C37.1353 3.97404 37.1041 3.92923 37.0712 3.88196C37.0645 3.87231 37.0578 3.86256 37.0509 3.85269C36.9597 3.72148 36.8564 3.57154 36.7644 3.40844C36.7592 3.39913 36.7539 3.38981 36.7487 3.38048C36.6974 3.52471 36.6425 3.66738 36.5841 3.80838L36.682 3.88294H36.5528C36.3404 4.38309 36.084 4.8618 35.7886 5.31394M38.2003 5.15262L35.7886 5.31394M33.6012 11.4622C33.6527 11.3175 33.7077 11.1744 33.7663 11.0329L33.6684 10.9584H33.7976C34.01 10.4582 34.2665 9.97948 34.5618 9.52734C34.1293 8.96926 33.6266 8.46657 33.0685 8.03405C32.6164 8.3294 32.1377 8.58585 31.6375 8.79826V8.92756L31.5629 8.82957C31.4217 8.88804 31.2788 8.94301 31.1344 8.99437C31.3486 9.11465 31.5576 9.25622 31.7464 9.3848C31.752 9.38786 31.7568 9.39056 31.7602 9.39253C31.7998 9.41534 31.8941 9.47651 31.9594 9.5286L33.6012 11.4622ZM33.6012 11.4622C33.5149 11.309 33.4143 11.1663 33.3303 11.047C33.3246 11.039 33.3191 11.0311 33.3136 11.0234C33.2736 10.9665 33.2373 10.9144 33.2044 10.8652C33.1885 10.8291 33.1726 10.7999 33.1642 10.7846C33.1412 10.7427 33.1055 10.6836 33.0596 10.6273C33.005 10.5604 32.9492 10.4944 32.8921 10.4293M33.6012 11.4622L32.8921 10.4293M32.8921 10.4293L31.9648 9.53292C31.9657 9.53372 31.9667 9.53452 31.9677 9.53531L31.9685 9.53598C32.0344 9.59007 32.1001 9.64568 32.1643 9.70158C32.2944 9.81532 32.4195 9.93297 32.5404 10.0539M32.8921 10.4293C32.7791 10.3005 32.6617 10.1751 32.5404 10.0539M33.0686 6.80719C32.6164 6.51178 32.1376 6.25529 31.6375 6.0429V5.91388L31.563 6.01166C31.4216 5.95309 31.2785 5.89804 31.1339 5.84662C31.1434 5.84131 31.1529 5.83598 31.1623 5.83064C31.3254 5.73856 31.4754 5.63534 31.6066 5.54416C31.6165 5.5373 31.6262 5.53052 31.6359 5.52381C31.6831 5.49094 31.7279 5.45977 31.7715 5.43011C31.7902 5.42287 31.8045 5.41609 31.8124 5.41219C31.8346 5.40127 31.8515 5.39095 31.8582 5.38673C31.8739 5.37699 31.8868 5.36786 31.8935 5.36302C31.9208 5.34334 31.9569 5.31463 31.9996 5.2793L32.0004 5.27863C32.0618 5.22757 32.1234 5.17523 32.1844 5.12165C32.3061 5.01441 32.4257 4.90244 32.5408 4.78732C32.6667 4.66097 32.789 4.52987 32.9065 4.39481M33.0686 6.80719L32.9902 4.29595L32.9875 4.29917C32.9739 4.31554 32.959 4.33331 32.9434 4.35175M33.0686 6.80719C33.6266 6.37469 34.1293 5.87203 34.5618 5.31394C34.2665 4.8618 34.01 4.38309 33.7976 3.88294H33.6683L33.7663 3.8083C33.7077 3.66689 33.6527 3.5238 33.6012 3.37914C33.473 3.60799 33.3325 3.82326 33.1906 4.02865M33.0686 6.80719L33.1906 4.02865M32.9065 4.39481C32.9066 4.39474 32.9064 4.39487 32.9065 4.39481ZM32.9065 4.39481L32.8965 4.38573C32.9108 4.37658 32.922 4.36838 32.9295 4.36271C32.9345 4.3589 32.9392 4.35522 32.9434 4.35175M32.9434 4.35175C32.9546 4.34264 32.963 4.33503 32.9677 4.3307C32.9753 4.32373 32.9813 4.3177 32.9854 4.31357C32.9935 4.30544 33 4.2983 33.0041 4.29384C33.0124 4.28466 33.0201 4.27569 33.0258 4.26893L33.0442 4.24667C33.0562 4.23197 33.0692 4.21579 33.0812 4.20038C33.0931 4.18527 33.1058 4.16881 33.1169 4.15388C33.1222 4.14669 33.1291 4.13728 33.136 4.12728C33.1394 4.12238 33.1445 4.11482 33.1502 4.1058C33.1531 4.10121 33.1572 4.09468 33.1617 4.08679C33.1658 4.07975 33.1732 4.06665 33.1812 4.04976C33.1838 4.0443 33.1871 4.03717 33.1906 4.02865M32.9434 4.35175L33.1906 4.02865M38.2602 9.82905C38.2568 9.86415 38.2567 9.90314 38.2624 9.94492C38.2739 10.0282 38.3088 10.1205 38.3765 10.2003C38.4153 10.1646 38.4545 10.1293 38.494 10.0945C38.5388 10.0552 38.5841 10.0164 38.6297 9.97804L38.463 9.69992L38.4608 9.69615L38.3758 9.55437C38.372 9.5588 38.3665 9.56552 38.3599 9.57422C38.3597 9.57449 38.3594 9.57477 38.3592 9.57504C38.3461 9.59246 38.3289 9.61754 38.3133 9.64787C38.3131 9.64821 38.3129 9.64869 38.3125 9.64931C38.3059 9.66175 38.27 9.73039 38.2602 9.82905ZM38.2602 9.82905C38.2602 9.82876 38.2602 9.82934 38.2602 9.82905ZM37.5837 4.3345C37.6188 4.3379 37.6578 4.33797 37.6996 4.33222C37.7829 4.32076 37.8752 4.28593 37.955 4.21818C37.9193 4.17938 37.884 4.1402 37.8492 4.10067C37.8099 4.05587 37.771 4.01055 37.7327 3.96494L37.4546 4.13164L37.4508 4.13392L37.3091 4.21888C37.3135 4.22266 37.3202 4.22821 37.3289 4.2348C37.3292 4.23501 37.3295 4.23522 37.3297 4.23543C37.3472 4.24858 37.3722 4.26572 37.4026 4.28136C37.4029 4.28154 37.4034 4.28179 37.404 4.28212C37.4164 4.28871 37.485 4.32478 37.5837 4.3345ZM37.5837 4.3345C37.5835 4.33447 37.584 4.33453 37.5837 4.3345ZM31.9987 9.89104C31.9936 9.92741 31.9841 9.96606 31.9682 10.0061C31.9487 10.0554 31.9241 10.097 31.8965 10.1322C31.8762 10.1141 31.8558 10.096 31.8352 10.078C31.7866 10.0356 31.7373 9.99378 31.6876 9.95245L31.9374 9.5743C31.9458 9.58893 31.9545 9.60596 31.9628 9.62512C31.9745 9.65249 32.0172 9.75645 31.9987 9.89104ZM31.9987 9.89104C31.9987 9.89075 31.9987 9.89133 31.9987 9.89104ZM32.5404 10.0539L32.1869 10.4074M31.8038 9.42337C31.804 9.42347 31.8061 9.42501 31.8097 9.42772M33.0134 10.6649L32.8547 10.7942L33.0517 10.6906C33.0408 10.6825 33.028 10.6737 33.0134 10.6649ZM33.0134 10.6649L32.8527 10.7952L32.6417 10.9062C32.6006 10.8566 32.5588 10.8076 32.5163 10.759M33.0134 10.6649C32.9883 10.6498 32.9574 10.6339 32.9224 10.6214C32.8783 10.6057 32.7999 10.5849 32.7033 10.5949M32.5163 10.759C32.4963 10.7363 32.4763 10.7137 32.4561 10.6913C32.5007 10.6579 32.5539 10.6298 32.6162 10.6119C32.6465 10.6031 32.6756 10.5978 32.7033 10.5949M32.5163 10.759L32.7033 10.5949M32.0884 5.01132C32.0918 4.97623 32.0919 4.93725 32.0861 4.89549C32.0747 4.8122 32.0398 4.71985 31.9721 4.64009C31.9333 4.67578 31.8941 4.71105 31.8546 4.74586C31.8098 4.78519 31.7645 4.82401 31.7188 4.86232L31.8856 5.14044L31.8878 5.14423L31.9728 5.28599C31.9766 5.28156 31.9821 5.27484 31.9887 5.26614C31.9889 5.26587 31.9891 5.2656 31.9893 5.26532C32.0025 5.2479 32.0196 5.22282 32.0353 5.19249C32.0354 5.19214 32.0357 5.19167 32.036 5.19105C32.0426 5.17862 32.0787 5.10998 32.0884 5.01132ZM32.0884 5.01132C32.0884 5.01161 32.0884 5.01103 32.0884 5.01132ZM38.7129 7.44597V7.69938C38.5356 7.61271 38.3617 7.51969 38.1915 7.42065C38.3672 7.3184 38.5469 7.22258 38.7301 7.13353C38.7188 7.2186 38.7129 7.306 38.7129 7.39551V7.44597ZM35.4541 10.9584H35.2005H35.1499H34.8965C34.9832 10.781 35.0762 10.6071 35.1753 10.4369C35.2743 10.6071 35.3674 10.781 35.4541 10.9584ZM36.1795 1.97048C35.9547 2.14177 35.7302 2.31265 35.5057 2.48358C35.3956 2.56741 35.2854 2.65126 35.1752 2.73517C35.041 2.63294 34.9067 2.53068 34.7723 2.42843C34.5717 2.27566 34.3711 2.12292 34.1708 1.97042C34.1977 1.87152 34.2228 1.77243 34.2463 1.67325C34.3319 1.31061 34.7422 1 35.1494 1H35.2C35.6092 1 36.0174 1.30996 36.103 1.67296C36.1267 1.77328 36.1523 1.87242 36.1795 1.97048ZM35.5773 12.4122C35.7776 12.5648 35.9779 12.7173 36.1779 12.8695C36.1509 12.9686 36.1258 13.0678 36.1023 13.1671C36.0167 13.5298 35.6064 13.8404 35.1992 13.8404H35.1486C34.7398 13.8404 34.3314 13.5305 34.2456 13.1677C34.2223 13.0685 34.1973 12.9697 34.1704 12.8712C34.3955 12.6997 34.6202 12.5286 34.845 12.3575C34.955 12.2738 35.0651 12.19 35.1752 12.1061C35.3092 12.2081 35.4432 12.3102 35.5773 12.4122ZM35.2005 3.88294H35.4539C35.3673 4.06023 35.2743 4.23413 35.1752 4.40433C35.0762 4.23413 34.9832 4.06023 34.8965 3.88294H35.1499H35.2005ZM29.4269 6.49202C29.5272 6.46835 29.6264 6.44277 29.7244 6.41552C29.8959 6.64061 30.0669 6.86528 30.238 7.09001C30.3219 7.20018 30.4058 7.31037 30.4897 7.42063C30.3875 7.55493 30.2852 7.6893 30.1829 7.82366C30.0303 8.02413 29.8777 8.22455 29.7253 8.42458C29.6262 8.39753 29.5267 8.37232 29.427 8.34877C29.065 8.26356 28.7539 7.8528 28.7539 7.4457V7.39506C28.7539 6.98585 29.0639 6.57765 29.4269 6.49202ZM32.159 7.4206C31.9888 7.51965 31.8148 7.61268 31.6375 7.69937V7.44597V7.39532V7.14179C31.8148 7.22848 31.9888 7.32152 32.159 7.4206ZM30.7164 5.70965C30.6352 5.68522 30.5536 5.66191 30.4715 5.63976L30.7164 5.70965Z" stroke="#DD9933"/>
<path d="M11.8027 48.0253C12.0109 48.2859 12.3212 48.4545 12.6626 48.4919C13.004 48.5298 13.3466 48.4333 13.6117 48.2246C13.8762 48.0164 14.0405 47.7145 14.0657 47.3881C14.0909 47.0622 13.9753 46.7402 13.7454 46.4974C12.1394 44.6491 12.6608 44.0973 13.7959 42.7775C14.9309 41.4578 16.8314 39.3534 13.7284 35.9377C13.2644 35.436 12.4602 35.3874 11.9335 35.8294C11.4062 36.2708 11.3552 37.0359 11.8197 37.537C13.5014 39.4008 12.997 39.9851 11.8702 41.2653C10.7434 42.5454 8.8599 44.633 11.8027 48.0253Z" fill="#DD9933"/>
<path d="M20.8852 48.0253C21.0929 48.2859 21.4032 48.4545 21.7446 48.4919C22.086 48.5298 22.4291 48.4333 22.6937 48.2246C22.9588 48.0164 23.1225 47.7145 23.1477 47.3881C23.1729 47.0622 23.0573 46.7402 22.8274 46.4974C21.2214 44.6491 21.7428 44.0973 22.8779 42.7775C24.0129 41.4578 25.9134 39.3534 22.8104 35.9377C22.3458 35.436 21.5422 35.3874 21.0155 35.8294C20.4881 36.2708 20.4371 37.0359 20.9017 37.537C22.5834 39.4008 22.0789 39.9851 20.9521 41.2653C19.8253 42.5454 17.9418 44.633 20.8852 48.0253Z" fill="#DD9933"/>
<path d="M29.7668 48.0253C29.9485 48.2859 30.22 48.4545 30.5187 48.4919C30.8174 48.5298 31.1177 48.4333 31.3491 48.2246C31.5811 48.0164 31.7249 47.7145 31.7469 47.3881C31.769 47.0622 31.6674 46.7402 31.4662 46.4974C30.0609 44.6491 30.5171 44.0973 31.5103 42.7775C32.5035 41.4578 34.1664 39.3534 31.4513 35.9377C31.0448 35.436 30.3421 35.3874 29.8807 35.8294C29.4193 36.2708 29.3752 37.0359 29.7811 37.537C31.2526 39.4008 30.8112 39.9851 29.8253 41.2653C28.8393 42.5454 27.1912 44.633 29.7668 48.0253Z" fill="#DD9933"/>
<path d="M38.3966 48.0253C38.6043 48.2859 38.9146 48.4545 39.2559 48.4919C39.5979 48.5298 39.9404 48.4333 40.2049 48.2246C40.47 48.0164 40.6343 47.7145 40.6595 47.3881C40.6847 47.0622 40.5692 46.7402 40.3392 46.4974C38.7334 44.6491 39.2547 44.0973 40.3897 42.7775C41.5246 41.4578 43.425 39.3534 40.3222 35.9377C39.8577 35.436 39.0542 35.3874 38.5269 35.8294C38.0002 36.2708 37.9491 37.0359 38.4137 37.537C40.0952 39.4008 39.5908 39.9851 38.4641 41.2653C37.3374 42.5454 35.4534 44.633 38.3966 48.0253Z" fill="#DD9933"/>
</g>
<defs>
<clipPath id="clip0_1_156">
<rect width="49" height="48" fill="white" transform="translate(0.5 0.5)"/>
</clipPath>
</defs>
</svg>
