<svg width="49" height="53" viewBox="0 0 49 53" fill="none" xmlns="http://www.w3.org/2000/svg">
<g clip-path="url(#clip0_1_168)">
<path d="M47.4346 5.04601H44.5182C44.0596 5.04601 43.6891 5.41766 43.6891 5.87511C43.6891 6.33256 44.0596 6.70422 44.5182 6.70422H47.4346C47.8932 6.70422 48.2637 6.33256 48.2637 5.87511C48.2637 5.41731 47.8932 5.04601 47.4346 5.04601Z" fill="#DD9933" stroke="#DD9933" stroke-width="0.2"/>
<path d="M43.6037 4.49591C43.3707 4.44255 43.1623 4.28945 43.0465 4.05881C42.8414 3.64945 43.0072 3.15079 43.417 2.94607M43.6037 4.49591L46.3334 1.48787L43.417 2.94607M43.6037 4.49591L43.5877 4.51691H43.7892C43.9136 4.51691 44.0406 4.48878 44.1592 4.42916C44.1591 4.42918 44.1592 4.42914 44.1592 4.42916L43.6037 4.49591Z" fill="#DD9933"/>
<path d="M43.6037 4.49591C43.3707 4.44255 43.1623 4.28945 43.0465 4.05881C42.8414 3.64945 43.0072 3.15079 43.417 2.94607M43.6037 4.49591L46.3334 1.48787M43.6037 4.49591L43.5877 4.51691H43.7892C43.9136 4.51691 44.0406 4.48878 44.1592 4.42916M43.6037 4.49591L44.1592 4.42916M43.417 2.94607L46.3334 1.48787M43.417 2.94607L43.4617 3.03553M46.3334 1.48787L46.3782 1.57732M44.1592 4.42916C44.1592 4.42914 44.1591 4.42918 44.1592 4.42916ZM47.0754 2.97102L47.031 2.8821" stroke="#DD9933" stroke-width="0.2"/>
<path d="M47.4451 9.89081C47.6476 9.4896 47.4913 9.00387 47.0996 8.79179L47.0753 8.77909L44.159 7.32095C44.159 7.32096 44.159 7.32094 44.159 7.32095C43.749 7.11507 43.2509 7.28295 43.0463 7.69136C42.8416 8.10098 43.0073 8.59928 43.4168 8.804L46.3332 10.2622C46.4528 10.3218 46.5789 10.3493 46.7031 10.3493C47.0069 10.3493 47.2999 10.1822 47.4451 9.89081Z" fill="#DD9933"/>
<path d="M44.159 7.32095L47.0753 8.77909L47.0996 8.79179C47.4913 9.00387 47.6476 9.4896 47.4451 9.89081C47.2999 10.1822 47.0069 10.3493 46.7031 10.3493C46.5789 10.3493 46.4528 10.3218 46.3332 10.2622L43.4168 8.804C43.0073 8.59928 42.8416 8.10098 43.0463 7.69136C43.2509 7.28295 43.749 7.11507 44.159 7.32095ZM44.159 7.32095C44.159 7.32094 44.159 7.32096 44.159 7.32095Z" stroke="#DD9933" stroke-width="0.2"/>
<path fill-rule="evenodd" clip-rule="evenodd" d="M6.60375 13.7737L5.14553 13.7735V34.9178C5.14553 35.3195 5.47233 35.6469 5.87464 35.6469H10.2493C10.6516 35.6469 10.9784 35.3195 10.9784 34.9178V17.4193C10.9784 16.2133 11.9597 15.232 13.1657 15.232H20.4568C21.6628 15.232 22.6441 16.2133 22.6441 17.4193V21.7939H23.3732H24.8314H37.2262C38.4322 21.7939 39.4135 22.7752 39.4135 23.9812V31.89C38.9395 31.7601 38.4527 31.6611 37.9553 31.5954V23.9812C37.9553 23.5796 37.6285 23.2521 37.2262 23.2521H16.8112C16.4089 23.2521 16.0821 23.5796 16.0821 23.9812V47.3126C16.0821 47.7143 16.4089 48.0418 16.8112 48.0418H26.9959C27.2963 48.5559 27.6372 49.0434 28.0143 49.5H16.8112C15.6053 49.5 14.6239 48.5186 14.6239 47.3126V23.9812C14.6239 22.7752 15.6053 21.7939 16.8112 21.7939H18.9986H20.4568H21.1859V17.4193C21.1859 17.0176 20.8591 16.6902 20.4568 16.6902H13.1657C12.7634 16.6902 12.4366 17.0176 12.4366 17.4193V34.9178C12.4366 36.1238 11.4553 37.1052 10.2493 37.1052H5.87464C4.66866 37.1052 3.68732 36.1238 3.68732 34.9178V13.7735L2.22911 13.7737C1.82582 13.7737 1.5 13.4469 1.5 13.0446V4.29535C1.5 3.08937 2.48134 2.10803 3.68732 2.10803H8.06196C9.0108 2.10803 9.81281 2.71898 10.1145 3.56625L29.9354 3.68733C29.9354 3.28502 30.2612 2.95822 30.6645 2.95822H36.4974C36.9007 2.95822 37.2265 3.28502 37.2265 3.68733H40.1429C40.5462 3.68733 40.872 4.01413 40.872 4.41643V5.14554H41.6011C42.0044 5.14554 42.3302 5.47234 42.3302 5.87465C42.3302 6.27696 42.0044 6.60375 41.6011 6.60375H40.872V7.33286C40.872 7.73517 40.5462 8.06197 40.1429 8.06197H37.2265C37.2265 8.46428 36.9007 8.79107 36.4974 8.79107H30.6645C30.2612 8.79107 29.9354 8.46428 29.9354 8.06197L10.1145 7.94089C9.81248 8.78815 9.01113 9.3991 8.06196 9.3991H7.33285V13.0446C7.33285 13.4469 7.00703 13.7737 6.60375 13.7737ZM39.4135 5.14528V6.6035H37.2262V5.14528H39.4135ZM35.768 4.41618V7.3326H31.3934V4.41618H35.768ZM29.9352 6.6035L10.2493 6.48241V5.0242L29.9352 5.14528V6.6035ZM2.95821 4.2951C2.95821 3.89344 3.28501 3.566 3.68732 3.566H8.06196C8.46427 3.566 8.79107 3.89344 8.79107 4.2951V7.21153C8.79107 7.61319 8.46427 7.94064 8.06196 7.94064H6.60375C6.20046 7.94064 5.87464 8.26743 5.87464 8.66974V12.3153H2.95821V4.2951Z" fill="#DD9933"/>
<mask id="mask0_1_168" style="mask-type:luminance" maskUnits="userSpaceOnUse" x="0" y="1" width="44" height="50">
<path d="M43.5 1.10803H0.5V50.108H43.5V1.10803Z" fill="white"/>
<path fill-rule="evenodd" clip-rule="evenodd" d="M6.60375 13.7737L5.14553 13.7735V34.9178C5.14553 35.3195 5.47233 35.6469 5.87464 35.6469H10.2493C10.6516 35.6469 10.9784 35.3195 10.9784 34.9178V17.4193C10.9784 16.2133 11.9597 15.232 13.1657 15.232H20.4568C21.6628 15.232 22.6441 16.2133 22.6441 17.4193V21.7939H23.3732H24.8314H37.2262C38.4322 21.7939 39.4135 22.7752 39.4135 23.9812V31.89C38.9395 31.7601 38.4527 31.6611 37.9553 31.5954V23.9812C37.9553 23.5796 37.6285 23.2521 37.2262 23.2521H16.8112C16.4089 23.2521 16.0821 23.5796 16.0821 23.9812V47.3126C16.0821 47.7143 16.4089 48.0418 16.8112 48.0418H26.9959C27.2963 48.5559 27.6372 49.0434 28.0143 49.5H16.8112C15.6053 49.5 14.6239 48.5186 14.6239 47.3126V23.9812C14.6239 22.7752 15.6053 21.7939 16.8112 21.7939H18.9986H20.4568H21.1859V17.4193C21.1859 17.0176 20.8591 16.6902 20.4568 16.6902H13.1657C12.7634 16.6902 12.4366 17.0176 12.4366 17.4193V34.9178C12.4366 36.1238 11.4553 37.1052 10.2493 37.1052H5.87464C4.66866 37.1052 3.68732 36.1238 3.68732 34.9178V13.7735L2.22911 13.7737C1.82582 13.7737 1.5 13.4469 1.5 13.0446V4.29535C1.5 3.08937 2.48134 2.10803 3.68732 2.10803H8.06196C9.0108 2.10803 9.81281 2.71898 10.1145 3.56625L29.9354 3.68733C29.9354 3.28502 30.2612 2.95822 30.6645 2.95822H36.4974C36.9007 2.95822 37.2265 3.28502 37.2265 3.68733H40.1429C40.5462 3.68733 40.872 4.01413 40.872 4.41643V5.14554H41.6011C42.0044 5.14554 42.3302 5.47234 42.3302 5.87465C42.3302 6.27696 42.0044 6.60375 41.6011 6.60375H40.872V7.33286C40.872 7.73517 40.5462 8.06197 40.1429 8.06197H37.2265C37.2265 8.46428 36.9007 8.79107 36.4974 8.79107H30.6645C30.2612 8.79107 29.9354 8.46428 29.9354 8.06197L10.1145 7.94089C9.81248 8.78815 9.01113 9.3991 8.06196 9.3991H7.33285V13.0446C7.33285 13.4469 7.00703 13.7737 6.60375 13.7737ZM39.4135 5.14528V6.6035H37.2262V5.14528H39.4135ZM35.768 4.41618V7.3326H31.3934V4.41618H35.768ZM29.9352 6.6035L10.2493 6.48241V5.0242L29.9352 5.14528V6.6035ZM2.95821 4.2951C2.95821 3.89344 3.28501 3.566 3.68732 3.566H8.06196C8.46427 3.566 8.79107 3.89344 8.79107 4.2951V7.21153C8.79107 7.61319 8.46427 7.94064 8.06196 7.94064H6.60375C6.20046 7.94064 5.87464 8.26743 5.87464 8.66974V12.3153H2.95821V4.2951Z" fill="#00C3FF"/>
</mask>
<g mask="url(#mask0_1_168)">
<path d="M23.3732 21.6939H20.4568V21.8939H23.3732V21.6939ZM5.14552 13.7735L5.14556 13.5735H4.94552V13.7735H5.14552ZM22.6441 21.7939H22.4441V21.9939H22.6441V21.7939ZM39.4135 31.89L39.3607 32.0829L39.6135 32.1521V31.89H39.4135ZM37.9553 31.5954H37.7553V31.7707L37.9291 31.7937L37.9553 31.5954ZM26.9959 48.0418L27.1686 47.9408L27.1107 47.8418H26.9959V48.0418ZM28.0143 49.5V49.7H28.4389L28.1685 49.3726L28.0143 49.5ZM21.1859 21.7939V21.9939H21.3859V21.7939H21.1859ZM3.68731 13.7735H3.88731V13.5735H3.68728L3.68731 13.7735ZM10.1145 3.56626L9.92612 3.63335L9.97315 3.7654L10.1133 3.76625L10.1145 3.56626ZM29.9354 3.68734L29.9342 3.88733L30.1354 3.88856V3.68734H29.9354ZM37.2265 3.68734H37.0265V3.88734H37.2265V3.68734ZM40.872 5.14555H40.672V5.34555H40.872V5.14555ZM40.872 6.60376V6.40376H40.672V6.60376H40.872ZM37.2265 8.06198V7.86198H37.0265V8.06198H37.2265ZM29.9354 8.06198H30.1354V7.86319L29.9366 7.86198L29.9354 8.06198ZM10.1145 7.9409L10.1157 7.7409L9.97381 7.74003L9.92615 7.87373L10.1145 7.9409ZM7.33284 9.39911V9.1991H7.13284V9.39911H7.33284ZM39.4135 6.60351V6.80351H39.6135V6.60351H39.4135ZM39.4135 5.14529H39.6135V4.94529H39.4135V5.14529ZM37.2262 6.60351H37.0262V6.80351H37.2262V6.60351ZM37.2262 5.14529V4.94529H37.0262V5.14529H37.2262ZM35.768 7.33261V7.53261H35.968V7.33261H35.768ZM35.768 4.41619H35.968V4.21619H35.768V4.41619ZM31.3934 7.33261H31.1934V7.53261H31.3934V7.33261ZM31.3934 4.41619V4.21619H31.1934V4.41619H31.3934ZM10.2493 6.48242H10.0493V6.6812L10.248 6.68242L10.2493 6.48242ZM29.9352 6.60351L29.9339 6.8035L30.1352 6.80474V6.60351H29.9352ZM10.2493 5.02421L10.2505 4.82421L10.0493 4.82298V5.02421H10.2493ZM29.9352 5.14529H30.1352V4.94652L29.9364 4.9453L29.9352 5.14529ZM5.87463 12.3153V12.5153H6.07463V12.3153H5.87463ZM2.9582 12.3153H2.7582V12.5153H2.9582V12.3153ZM5.14549 13.9735L6.6037 13.9737L6.60377 13.5737L5.14556 13.5735L5.14549 13.9735ZM5.34552 34.9178V13.7735H4.94552V34.9178H5.34552ZM5.87463 35.4469C5.58289 35.4469 5.34552 35.2092 5.34552 34.9178H4.94552C4.94552 35.4298 5.36175 35.8469 5.87463 35.8469V35.4469ZM10.2493 35.4469H5.87463V35.8469H10.2493V35.4469ZM10.7784 34.9178C10.7784 35.2092 10.541 35.4469 10.2493 35.4469V35.8469C10.7622 35.8469 11.1784 35.4298 11.1784 34.9178H10.7784ZM10.7784 17.4193V34.9178H11.1784V17.4193H10.7784ZM13.1657 15.032C11.8493 15.032 10.7784 16.1028 10.7784 17.4193H11.1784C11.1784 16.3237 12.0702 15.432 13.1657 15.432V15.032ZM20.4568 15.032H13.1657V15.432H20.4568V15.032ZM22.8441 17.4193C22.8441 16.1028 21.7732 15.032 20.4568 15.032V15.432C21.5523 15.432 22.4441 16.3237 22.4441 17.4193H22.8441ZM22.8441 21.7939V17.4193H22.4441V21.7939H22.8441ZM23.3732 21.5939H22.6441V21.9939H23.3732V21.5939ZM24.8314 21.5939H23.3732V21.9939H24.8314V21.5939ZM37.2262 21.5939H24.8314V21.9939H37.2262V21.5939ZM39.6135 23.9812C39.6135 22.6648 38.5427 21.5939 37.2262 21.5939V21.9939C38.3218 21.9939 39.2135 22.8857 39.2135 23.9812H39.6135ZM39.6135 31.89V23.9812H39.2135V31.89H39.6135ZM37.9291 31.7937C38.4174 31.8582 38.8953 31.9554 39.3607 32.0829L39.4664 31.6971C38.9836 31.5648 38.4879 31.464 37.9815 31.3971L37.9291 31.7937ZM37.7553 23.9812V31.5954H38.1553V23.9812H37.7553ZM37.2262 23.4521C37.518 23.4521 37.7553 23.6899 37.7553 23.9812H38.1553C38.1553 23.4692 37.7391 23.0521 37.2262 23.0521V23.4521ZM16.8112 23.4521H37.2262V23.0521H16.8112V23.4521ZM16.2821 23.9812C16.2821 23.6899 16.5195 23.4521 16.8112 23.4521V23.0521C16.2984 23.0521 15.8821 23.4692 15.8821 23.9812H16.2821ZM16.2821 47.3126V23.9812H15.8821V47.3126H16.2821ZM16.8112 47.8418C16.5195 47.8418 16.2821 47.604 16.2821 47.3126H15.8821C15.8821 47.8246 16.2984 48.2418 16.8112 48.2418V47.8418ZM26.9959 47.8418H16.8112V48.2418H26.9959V47.8418ZM28.1685 49.3726C27.7983 48.9243 27.4635 48.4456 27.1686 47.9408L26.8232 48.1427C27.1291 48.6661 27.4762 49.1625 27.8601 49.6273L28.1685 49.3726ZM16.8112 49.7H28.0143V49.3H16.8112V49.7ZM14.4239 47.3126C14.4239 48.6291 15.4948 49.7 16.8112 49.7V49.3C15.7157 49.3 14.8239 48.4082 14.8239 47.3126H14.4239ZM14.4239 23.9812V47.3126H14.8239V23.9812H14.4239ZM16.8112 21.5939C15.4948 21.5939 14.4239 22.6648 14.4239 23.9812H14.8239C14.8239 22.8857 15.7157 21.9939 16.8112 21.9939V21.5939ZM18.9986 21.5939H16.8112V21.9939H18.9986V21.5939ZM20.4568 21.5939H18.9986V21.9939H20.4568V21.5939ZM21.1859 21.5939H20.4568V21.9939H21.1859V21.5939ZM20.9859 17.4193V21.7939H21.3859V17.4193H20.9859ZM20.4568 16.8902C20.7485 16.8902 20.9859 17.128 20.9859 17.4193H21.3859C21.3859 16.9073 20.9697 16.4902 20.4568 16.4902V16.8902ZM13.1657 16.8902H20.4568V16.4902H13.1657V16.8902ZM12.6366 17.4193C12.6366 17.128 12.874 16.8902 13.1657 16.8902V16.4902C12.6528 16.4902 12.2366 16.9073 12.2366 17.4193H12.6366ZM12.6366 34.9178V17.4193H12.2366V34.9178H12.6366ZM10.2493 37.3052C11.5657 37.3052 12.6366 36.2343 12.6366 34.9178H12.2366C12.2366 36.0134 11.3448 36.9052 10.2493 36.9052V37.3052ZM5.87463 37.3052H10.2493V36.9052H5.87463V37.3052ZM3.48731 34.9178C3.48731 36.2343 4.55819 37.3052 5.87463 37.3052V36.9052C4.7791 36.9052 3.88731 36.0134 3.88731 34.9178H3.48731ZM3.48731 13.7735V34.9178H3.88731V13.7735H3.48731ZM2.2291 13.9737L3.68734 13.9735L3.68728 13.5735L2.22906 13.5737L2.2291 13.9737ZM1.29999 13.0446C1.29999 13.5572 1.71518 13.9737 2.2291 13.9737L2.22906 13.5737C1.9364 13.5737 1.69999 13.3367 1.69999 13.0446H1.29999ZM1.29999 4.29536V13.0446H1.69999V4.29536H1.29999ZM3.68731 1.90804C2.37087 1.90804 1.29999 2.97892 1.29999 4.29536H1.69999C1.69999 3.19984 2.59178 2.30804 3.68731 2.30804V1.90804ZM8.06195 1.90804H3.68731V2.30804H8.06195V1.90804ZM10.3029 3.49916C9.97425 2.5762 9.09954 1.90804 8.06195 1.90804V2.30804C8.92204 2.30804 9.65134 2.86178 9.92612 3.63335L10.3029 3.49916ZM29.9366 3.48734L10.1157 3.36626L10.1133 3.76625L29.9342 3.88733L29.9366 3.48734ZM30.6645 2.75823C30.1506 2.75823 29.7354 3.17475 29.7354 3.68734H30.1354C30.1354 3.39531 30.3719 3.15823 30.6645 3.15823V2.75823ZM36.4974 2.75823H30.6645V3.15823H36.4974V2.75823ZM37.4265 3.68734C37.4265 3.17475 37.0113 2.75823 36.4974 2.75823V3.15823C36.79 3.15823 37.0265 3.39531 37.0265 3.68734H37.4265ZM40.1429 3.48734H37.2265V3.88734H40.1429V3.48734ZM41.072 4.41644C41.072 3.90385 40.6568 3.48734 40.1429 3.48734V3.88734C40.4356 3.88734 40.672 4.12442 40.672 4.41644H41.072ZM41.072 5.14555V4.41644H40.672V5.14555H41.072ZM41.6011 4.94555H40.872V5.34555H41.6011V4.94555ZM42.5302 5.87466C42.5302 5.36207 42.115 4.94555 41.6011 4.94555V5.34555C41.8938 5.34555 42.1302 5.58263 42.1302 5.87466H42.5302ZM41.6011 6.80376C42.115 6.80376 42.5302 6.38725 42.5302 5.87466H42.1302C42.1302 6.16668 41.8938 6.40376 41.6011 6.40376V6.80376ZM40.872 6.80376H41.6011V6.40376H40.872V6.80376ZM41.072 7.33287V6.60376H40.672V7.33287H41.072ZM40.1429 8.26198C40.6568 8.26198 41.072 7.84546 41.072 7.33287H40.672C40.672 7.6249 40.4356 7.86198 40.1429 7.86198V8.26198ZM37.2265 8.26198H40.1429V7.86198H37.2265V8.26198ZM36.4974 8.99108C37.0113 8.99108 37.4265 8.57457 37.4265 8.06198H37.0265C37.0265 8.354 36.79 8.59108 36.4974 8.59108V8.99108ZM30.6645 8.99108H36.4974V8.59108H30.6645V8.99108ZM29.7354 8.06198C29.7354 8.57457 30.1506 8.99108 30.6645 8.99108V8.59108C30.3719 8.59108 30.1354 8.354 30.1354 8.06198H29.7354ZM10.1133 8.14089L29.9342 8.26197L29.9366 7.86198L10.1157 7.7409L10.1133 8.14089ZM8.06195 9.59911C9.09994 9.59911 9.97392 8.93089 10.3029 8.00806L9.92615 7.87373C9.65103 8.64543 8.92231 9.1991 8.06195 9.1991V9.59911ZM7.33284 9.59911H8.06195V9.1991H7.33284V9.59911ZM7.53284 13.0446V9.39911H7.13284V13.0446H7.53284ZM6.6037 13.9737C7.11761 13.9737 7.53284 13.5572 7.53284 13.0446H7.13284C7.13284 13.3367 6.89642 13.5737 6.60377 13.5737L6.6037 13.9737ZM39.6135 6.60351V5.14529H39.2135V6.60351H39.6135ZM37.2262 6.80351H39.4135V6.40351H37.2262V6.80351ZM37.0262 5.14529V6.60351H37.4262V5.14529H37.0262ZM39.4135 4.94529H37.2262V5.34529H39.4135V4.94529ZM35.968 7.33261V4.41619H35.568V7.33261H35.968ZM31.3934 7.53261H35.768V7.13261H31.3934V7.53261ZM31.1934 4.41619V7.33261H31.5934V4.41619H31.1934ZM35.768 4.21619H31.3934V4.61619H35.768V4.21619ZM10.248 6.68242L29.9339 6.8035L29.9364 6.40351L10.2505 6.28243L10.248 6.68242ZM10.0493 5.02421V6.48242H10.4493V5.02421H10.0493ZM29.9364 4.9453L10.2505 4.82421L10.248 5.22421L29.9339 5.34529L29.9364 4.9453ZM30.1352 6.60351V5.14529H29.7352V6.60351H30.1352ZM3.68731 3.36601C3.17443 3.36601 2.7582 3.78311 2.7582 4.29511H3.1582C3.1582 4.00379 3.39557 3.76601 3.68731 3.76601V3.36601ZM8.06195 3.36601H3.68731V3.76601H8.06195V3.36601ZM8.99106 4.29511C8.99106 3.78311 8.57483 3.36601 8.06195 3.36601V3.76601C8.35369 3.76601 8.59106 4.00379 8.59106 4.29511H8.99106ZM8.99106 7.21154V4.29511H8.59106V7.21154H8.99106ZM8.06195 8.14065C8.57483 8.14065 8.99106 7.72354 8.99106 7.21154H8.59106C8.59106 7.50286 8.35369 7.74065 8.06195 7.74065V8.14065ZM6.60374 8.14065H8.06195V7.74065H6.60374V8.14065ZM6.07463 8.66974C6.07463 8.37772 6.31108 8.14065 6.60374 8.14065V7.74065C6.08982 7.74065 5.67463 8.15715 5.67463 8.66974H6.07463ZM6.07463 12.3153V8.66974H5.67463V12.3153H6.07463ZM2.9582 12.5153H5.87463V12.1153H2.9582V12.5153ZM2.7582 4.29511V12.3153H3.1582V4.29511H2.7582Z" fill="#DD9933"/>
</g>
<path d="M36.5001 32.5C33.9122 32.499 31.4256 33.5045 29.5664 35.3046C29.4572 35.3667 29.3669 35.4571 29.3047 35.5663C26.8535 38.1044 25.9229 41.747 26.856 45.1496C27.789 48.5523 30.4476 51.2111 33.8504 52.1441C37.2532 53.0771 40.8957 52.1465 43.4337 49.6953C43.5429 49.6331 43.6332 49.5428 43.6953 49.4336C45.5229 47.5411 46.5305 45.0043 46.4993 42.3735C46.468 39.7429 45.4004 37.2306 43.5285 35.382C41.6566 33.5335 39.131 32.4979 36.5001 32.5ZM36.5001 50.9616C34.3449 50.963 32.2701 50.1412 30.7003 48.6642C29.1306 47.1872 28.1838 45.1666 28.054 43.0151C27.9238 40.8636 28.6203 38.7438 30.0011 37.0886L32.7404 39.8279C32.6913 39.8973 32.6446 39.9684 32.5992 40.0409L31.8259 39.7184C31.4341 39.5549 30.9832 39.74 30.8197 40.1322C30.6563 40.5244 30.8417 40.9746 31.2339 41.138L32.0072 41.4605C31.8489 42.1373 31.8469 42.8417 32.0024 43.5196L31.2281 43.8382C31.0388 43.9155 30.8884 44.0649 30.8094 44.2534C30.7308 44.4419 30.7301 44.6538 30.8077 44.8427C30.8857 45.0319 31.0351 45.182 31.2239 45.2606C31.4125 45.3389 31.6243 45.3393 31.8132 45.261L32.5879 44.9423C32.9547 45.533 33.4516 46.032 34.0405 46.4011L33.718 47.1745C33.5546 47.5663 33.74 48.0168 34.1322 48.1803C34.5244 48.3437 34.9746 48.1583 35.138 47.7665L35.4605 46.9931C36.1366 47.1583 36.8427 47.1597 37.5195 46.9979L37.8382 47.772C38.0003 48.1638 38.4491 48.3506 38.8416 48.1892C39.2338 48.0278 39.4216 47.5793 39.2609 47.1868L38.9422 46.4121C39.0205 46.3633 39.0971 46.3125 39.172 46.2596L41.9113 48.999C40.3938 50.2685 38.4785 50.9634 36.5001 50.9616ZM38.0605 45.1484C37.9355 45.2229 37.8054 45.2889 37.6711 45.3452C36.9167 45.656 36.0698 45.6539 35.3164 45.34C34.5633 45.0262 33.9658 44.4259 33.655 43.6715C33.3422 42.9173 33.3439 42.0691 33.6602 41.3164C33.7155 41.1866 33.7794 41.0605 33.8518 40.9393L38.0605 45.1484ZM34.9397 39.852C35.0647 39.7775 35.1948 39.7112 35.3291 39.6549C36.0836 39.3441 36.9308 39.3462 37.6838 39.6601C38.4373 39.9739 39.0348 40.5745 39.3452 41.329C39.656 42.0835 39.6539 42.9307 39.34 43.6841C39.2847 43.8136 39.2209 43.9396 39.1484 44.0608L34.9397 39.852ZM42.9991 47.9115L40.2597 45.1721C40.3089 45.1028 40.3556 45.0317 40.4009 44.9592L41.1742 45.2817C41.5661 45.4452 42.017 45.2601 42.1804 44.8679C42.3438 44.4757 42.1584 44.0255 41.7662 43.8621L40.9929 43.5396C41.1512 42.8628 41.1533 42.1584 40.9977 41.4805L41.7721 41.1618C42.1639 40.9998 42.3507 40.5509 42.1893 40.1584C42.0279 39.7663 41.5794 39.5784 41.1869 39.7391L40.4122 40.0578C40.0455 39.4671 39.5486 38.9681 38.9597 38.599L39.2821 37.8256C39.4456 37.4338 39.2601 36.9832 38.868 36.8198C38.4758 36.6564 38.0256 36.8418 37.8622 37.234L37.5397 38.0073C36.8629 37.849 36.1585 37.847 35.4806 38.0025L35.162 37.2281C35.0847 37.0393 34.9353 36.8885 34.7468 36.8095C34.5583 36.7309 34.3464 36.7302 34.1575 36.8078C33.9683 36.8858 33.8182 37.0351 33.7396 37.224C33.6613 37.4125 33.6609 37.6248 33.7392 37.8133L34.0579 38.588C33.9796 38.6368 33.903 38.6876 33.8282 38.7405L31.0888 36.0012C33.2698 34.1818 36.2187 33.5791 38.9387 34.396C41.6588 35.2134 43.7869 37.3415 44.6039 40.0616C45.4212 42.7817 44.8185 45.7305 42.9991 47.9115Z" fill="#DD9933"/>
<path d="M34.8673 42.5889C35.0627 43.0632 34.3515 43.3561 34.1561 42.8818C33.9611 42.4076 34.6722 42.115 34.8673 42.5889Z" fill="#DD9933"/>
<path d="M36.8193 40.3974C37.0144 40.8716 36.3032 41.1645 36.1081 40.6903C35.9127 40.216 36.6243 39.9231 36.8193 40.3974Z" fill="#DD9933"/>
<path d="M38.3049 40.822C38.4999 41.2962 37.7887 41.5888 37.5937 41.1145C37.3983 40.6406 38.1098 40.3477 38.3049 40.822Z" fill="#DD9933"/>
<path d="M36.1393 43.8962C36.3343 44.3704 35.6231 44.6633 35.4277 44.1891C35.2327 43.7149 35.9439 43.4219 36.1393 43.8962Z" fill="#DD9933"/>
<path d="M39.276 42.9531C39.4711 43.4273 38.7599 43.7199 38.5648 43.2456C38.3694 42.7714 39.081 42.4788 39.276 42.9531Z" fill="#DD9933"/>
</g>
<defs>
<clipPath id="clip0_1_168">
<rect width="48" height="52" fill="white" transform="translate(0.5 0.5)"/>
</clipPath>
</defs>
</svg>
