<svg width="52" height="51" viewBox="0 0 52 51" fill="none" xmlns="http://www.w3.org/2000/svg">
<g clip-path="url(#clip0_1_2)">
<path d="M8.44303 23.4303C8.22806 23.4307 8.012 23.4428 7.79447 23.4681L8.44303 23.4303ZM8.44303 23.6303C8.44292 23.6303 8.44315 23.6303 8.44303 23.6303ZM7.49459 12.75V21.7917C4.39809 22.1979 1.83673 24.6996 1.38025 27.7826C0.966314 30.5801 2.17616 33.2785 4.48722 34.809V43.4326C4.48722 44.7837 5.58607 45.8826 6.93722 45.8826H9.02088V47.7641C9.02088 48.8319 9.88898 49.7 10.9568 49.7H13.6052C14.6729 49.7 15.5411 48.8319 15.5411 47.7641V45.8826H36.9586V47.7641C36.9586 48.8319 37.8267 49.7 38.8945 49.7H41.5429C42.6106 49.7 43.4788 48.8319 43.4788 47.7641V45.8826H45.5624C46.9136 45.8826 48.0124 44.7837 48.0124 43.4326V34.8163C49.9919 33.5025 51.1999 31.272 51.1999 28.8677C51.1999 26.8256 50.3244 24.8779 48.7969 23.5237L48.737 23.4706C47.6811 22.5559 46.3803 21.9846 45.0121 21.8007V12.75C45.0121 6.43592 39.8762 1.3 33.5621 1.3H18.9446C12.6305 1.3 7.49459 6.43592 7.49459 12.75ZM18.9308 3.19957L18.9442 3.19963H33.5617C38.8273 3.19963 43.1117 7.48408 43.1117 12.7496V21.7922C39.9159 22.2133 37.3412 24.8198 36.9731 28.0219C36.8751 28.871 36.9405 29.7119 37.1353 30.5196H15.3749C15.5038 29.9811 15.5739 29.4269 15.5739 28.8673C15.5739 26.8313 14.703 24.8873 13.183 23.5339C12.1168 22.5834 10.7928 21.9874 9.39372 21.7988V12.7496C9.39372 7.48832 13.6712 3.20657 18.9308 3.19957ZM43.1886 21.7825L43.2121 21.9744H43.3117L43.2896 21.7757C43.2867 21.776 43.2837 21.7763 43.2803 21.7765C43.2738 21.7769 43.2658 21.7773 43.254 21.7778H43.253C43.2373 21.7785 43.2134 21.7794 43.1886 21.7825C43.1887 21.7825 43.1884 21.7825 43.1886 21.7825ZM37.8514 32.4199C38.654 34.0446 39.1228 35.6361 39.2415 37.1652H13.2606C13.3715 35.4946 13.8399 33.8698 14.6332 32.4199H37.8514ZM5.89798 33.4454C3.96979 32.3745 2.9339 30.2626 3.25944 28.0618C3.59693 25.7834 5.51462 23.9326 7.81741 23.6667C8.02342 23.6428 8.2284 23.6311 8.43247 23.6304C8.43622 23.6306 8.44011 23.6307 8.44413 23.6307C8.45033 23.6307 8.45606 23.6304 8.46121 23.63C9.74299 23.6323 10.9518 24.0909 11.9197 24.9533C13.035 25.9466 13.6743 27.3739 13.6743 28.8682C13.6743 29.7624 13.4456 30.6458 13.0134 31.4214C11.9148 33.394 11.3342 35.6476 11.3342 37.9378V38.1158C11.3342 38.6408 11.7592 39.0658 12.2842 39.0658H40.2217C40.7467 39.0658 41.1717 38.6408 41.1717 38.1158V37.951C41.1717 35.7794 40.574 33.5296 39.4048 31.2659C38.9276 30.3418 38.7389 29.2956 38.8604 28.24C39.1325 25.8786 41.0491 23.9552 43.4156 23.6703C44.943 23.4866 46.4019 23.9403 47.5356 24.9456C48.6566 25.9396 49.2993 27.369 49.2993 28.8683C49.2993 30.7747 48.2656 32.5313 46.6017 33.4518C46.299 33.6191 46.1119 33.9382 46.1119 34.2831V43.4333C46.1119 43.7366 45.8652 43.9833 45.5619 43.9833H6.93686C6.6335 43.9833 6.38686 43.7366 6.38686 43.4333V34.2758C6.38686 33.9308 6.19961 33.6126 5.89798 33.4454ZM13.6407 47.7643C13.6407 47.7842 13.6248 47.8002 13.6049 47.8002H10.9564C10.9365 47.8002 10.9206 47.7842 10.9206 47.7643V45.8828H13.6407V47.7643ZM41.5782 47.7643C41.5782 47.7842 41.5623 47.8002 41.5424 47.8002H38.894C38.874 47.8002 38.8581 47.7842 38.8581 47.7643V45.8828H41.5782V47.7643Z" fill="#DD9933"/>
<path d="M8.44303 23.4303C8.22806 23.4307 8.012 23.4428 7.79447 23.4681L8.44303 23.4303ZM8.44303 23.4303V23.6303M8.44303 23.6303C8.44315 23.6303 8.44292 23.6303 8.44303 23.6303ZM43.1886 21.7825L43.2121 21.9744H43.3117L43.2896 21.7757C43.2867 21.776 43.2837 21.7763 43.2803 21.7765C43.2738 21.7769 43.2658 21.7773 43.254 21.7778H43.253C43.2373 21.7785 43.2134 21.7794 43.1886 21.7825ZM43.1886 21.7825C43.1884 21.7825 43.1887 21.7825 43.1886 21.7825ZM7.49459 12.75V21.7917C4.39809 22.1979 1.83673 24.6996 1.38025 27.7826C0.966314 30.5801 2.17616 33.2785 4.48722 34.809V43.4326C4.48722 44.7837 5.58607 45.8826 6.93722 45.8826H9.02088V47.7641C9.02088 48.8319 9.88898 49.7 10.9568 49.7H13.6052C14.6729 49.7 15.5411 48.8319 15.5411 47.7641V45.8826H36.9586V47.7641C36.9586 48.8319 37.8267 49.7 38.8945 49.7H41.5429C42.6106 49.7 43.4788 48.8319 43.4788 47.7641V45.8826H45.5624C46.9136 45.8826 48.0124 44.7837 48.0124 43.4326V34.8163C49.9919 33.5025 51.1999 31.272 51.1999 28.8677C51.1999 26.8256 50.3244 24.8779 48.7969 23.5237L48.737 23.4706C47.6811 22.5559 46.3803 21.9846 45.0121 21.8007V12.75C45.0121 6.43592 39.8762 1.3 33.5621 1.3H18.9446C12.6305 1.3 7.49459 6.43592 7.49459 12.75ZM18.9308 3.19957L18.9442 3.19963H33.5617C38.8273 3.19963 43.1117 7.48408 43.1117 12.7496V21.7922C39.9159 22.2133 37.3412 24.8198 36.9731 28.0219C36.8751 28.871 36.9405 29.7119 37.1353 30.5196H15.3749C15.5038 29.9811 15.5739 29.4269 15.5739 28.8673C15.5739 26.8313 14.703 24.8873 13.183 23.5339C12.1168 22.5834 10.7928 21.9874 9.39372 21.7988V12.7496C9.39372 7.48832 13.6712 3.20657 18.9308 3.19957ZM37.8514 32.4199C38.654 34.0446 39.1228 35.6361 39.2415 37.1652H13.2606C13.3715 35.4946 13.8399 33.8698 14.6332 32.4199H37.8514ZM5.89798 33.4454C3.96979 32.3745 2.9339 30.2626 3.25944 28.0618C3.59693 25.7834 5.51462 23.9326 7.81741 23.6667C8.02342 23.6428 8.2284 23.6311 8.43247 23.6304C8.43622 23.6306 8.44011 23.6307 8.44413 23.6307C8.45033 23.6307 8.45606 23.6304 8.46121 23.63C9.74299 23.6323 10.9518 24.0909 11.9197 24.9533C13.035 25.9466 13.6743 27.3739 13.6743 28.8682C13.6743 29.7624 13.4456 30.6458 13.0134 31.4214C11.9148 33.394 11.3342 35.6476 11.3342 37.9378V38.1158C11.3342 38.6408 11.7592 39.0658 12.2842 39.0658H40.2217C40.7467 39.0658 41.1717 38.6408 41.1717 38.1158V37.951C41.1717 35.7794 40.574 33.5296 39.4048 31.2659C38.9276 30.3418 38.7389 29.2956 38.8604 28.24C39.1325 25.8786 41.0491 23.9552 43.4156 23.6703C44.943 23.4866 46.4019 23.9403 47.5356 24.9456C48.6566 25.9396 49.2993 27.369 49.2993 28.8683C49.2993 30.7747 48.2656 32.5313 46.6017 33.4518C46.299 33.6191 46.1119 33.9382 46.1119 34.2831V43.4333C46.1119 43.7366 45.8652 43.9833 45.5619 43.9833H6.93686C6.6335 43.9833 6.38686 43.7366 6.38686 43.4333V34.2758C6.38686 33.9308 6.19961 33.6126 5.89798 33.4454ZM13.6407 47.7643C13.6407 47.7842 13.6248 47.8002 13.6049 47.8002H10.9564C10.9365 47.8002 10.9206 47.7842 10.9206 47.7643V45.8828H13.6407V47.7643ZM41.5782 47.7643C41.5782 47.7842 41.5623 47.8002 41.5424 47.8002H38.894C38.874 47.8002 38.8581 47.7842 38.8581 47.7643V45.8828H41.5782V47.7643Z" stroke="#DD9933" stroke-width="0.4"/>
<path d="M26.3008 19.3323C27.9639 19.3323 29.3169 17.9793 29.3169 16.3162C29.3169 14.653 27.9639 13.3 26.3008 13.3C24.6446 13.3 23.3 14.6541 23.3 16.3162C23.3 17.9782 24.6446 19.3323 26.3008 19.3323ZM26.3008 15.2C26.9162 15.2 27.4169 15.7008 27.4169 16.3162C27.4169 16.9315 26.9161 17.4323 26.3008 17.4323C25.6964 17.4323 25.2 16.9337 25.2 16.3162C25.2 15.6986 25.6964 15.2 26.3008 15.2Z" fill="#DD9933" stroke="#DD9933" stroke-width="0.4"/>
</g>
<defs>
<clipPath id="clip0_1_2">
<rect width="51" height="50" fill="white" transform="translate(0.5 0.5)"/>
</clipPath>
</defs>
</svg>
