<svg width="56" height="58" viewBox="0 0 56 58" fill="none" xmlns="http://www.w3.org/2000/svg">
<g clip-path="url(#clip0_1_5)">
<path d="M47.4993 48.2142L47.8461 45.3608L46.0861 45.1343L45.7394 47.9877H43.0781V49.8142H45.7394C46.6325 49.8142 47.3888 49.1264 47.4993 48.2142Z" fill="#DD9933"/>
<path d="M53.7147 18.9294C53.7167 18.8741 53.7248 18.8188 53.7248 18.7645C53.7248 16.5321 52.1605 14.6701 50.1025 14.2746C49.7193 12.1549 47.9096 10.5455 45.7411 10.5455C44.2883 10.5455 42.9673 11.2635 42.1431 12.4596C41.3128 12.2874 40.4764 12.3751 39.7181 12.6736C38.9182 11.37 37.5161 10.5444 35.9832 10.5444C34.1979 10.5444 32.6022 11.6622 31.9128 13.3029C31.3704 13.2497 30.8452 13.3113 30.3282 13.4678C29.3235 12.1976 27.8363 11.4577 26.2253 11.4577C24.8607 11.4577 23.6199 11.9931 22.677 12.8646V4.1529C22.677 2.13859 21.0853 0.5 19.1287 0.5C17.172 0.5 15.5804 2.13859 15.5804 4.1529V35.2026H13.8062C12.3392 35.2026 11.145 36.432 11.145 37.9423V40.6819H4.9354C2.4901 40.6819 0.5 42.7297 0.5 45.2481V47.9877H2.27416V57.12H35.9832V53.4671H46.1578C48.3902 53.4671 50.283 51.7471 50.5628 49.4416L52.7577 26.0703H52.8388C54.3057 26.0703 55.5 24.8409 55.5 23.3306V21.5042C55.5 20.3113 54.7498 19.3051 53.7147 18.9294ZM26.2253 13.2852C27.4632 13.2852 28.5916 13.9458 29.2455 15.0511L29.6662 15.7618L30.3931 15.3976C30.9811 15.1033 31.4921 15.002 32.2707 15.2316L33.1851 15.4988L33.3818 14.5418C33.6393 13.2852 34.7342 12.3719 35.9832 12.3719C37.1035 12.3719 38.1082 13.1119 38.4822 14.213L38.8624 15.3329L39.8164 14.668C40.5078 14.1869 41.3675 14.0439 42.2414 14.3852L43.0008 14.6816L43.3536 13.9291C43.8037 12.9689 44.7192 12.373 45.7401 12.373C47.2071 12.373 48.4013 13.6024 48.4013 15.1127V16.0259H49.2884C50.7554 16.0259 51.9496 17.2553 51.9496 18.7656H23.5641C23.2518 18.7656 22.9558 18.8313 22.677 18.9336V16.9391C22.677 14.9248 24.2687 13.2852 26.2253 13.2852ZM23.6452 26.0703L24.5029 35.2078C24.4846 35.2078 24.4684 35.2026 24.4502 35.2026H22.676V25.9023C22.9548 26.0046 23.2508 26.0703 23.5631 26.0703H23.6442H23.6452ZM17.3545 4.1529C17.3545 3.14575 18.1504 2.32645 19.1287 2.32645C20.107 2.32645 20.9028 3.14575 20.9028 4.1529V35.2026H17.3545V4.1529ZM12.9191 37.9423C12.9191 37.4392 13.3176 37.029 13.8062 37.029H24.4512C24.9398 37.029 25.3383 37.4392 25.3383 37.9423V40.6819H12.9191V37.9423ZM2.27416 45.2481C2.27416 43.7379 3.46842 42.5084 4.9354 42.5084H33.322C34.789 42.5084 35.9832 43.7379 35.9832 45.2481V46.1613H2.27416V45.2481ZM23.5641 49.8142V55.2936H21.7899V47.9877H27.1124V55.2936H25.3383V49.8142H23.5641ZM16.4674 49.8142V55.2936H14.6933V47.9877H20.0158V55.2936H18.2416V49.8142H16.4674ZM9.3708 49.8142V55.2936H7.59664V47.9877H12.9191V55.2936H11.145V49.8142H9.3708ZM4.04832 47.9877H5.82248V55.2936H4.04832V47.9877ZM32.4349 55.2936V49.8142H30.6607V55.2936H28.8866V47.9877H34.2091V55.2936H32.4349ZM48.7977 49.2402C48.6315 50.6084 47.496 51.6407 46.1568 51.6407H35.9822V47.9877H37.7564V45.2481C37.7564 42.7307 35.7673 40.6819 33.321 40.6819H27.1114V37.9423C27.1114 37.2065 26.8245 36.5406 26.3642 36.0469L25.4265 26.0703H50.9723L48.7977 49.2402ZM53.7248 23.3306C53.7248 23.8337 53.3264 24.2439 52.8377 24.2439H23.5641C23.0754 24.2439 22.677 23.8337 22.677 23.3306V21.5042C22.677 21.0011 23.0754 20.591 23.5641 20.591H52.8377C53.3264 20.591 53.7248 21.0011 53.7248 21.5042V23.3306Z" fill="#DD9933"/>
<path d="M52.837 10.5455C54.304 10.5455 55.4983 9.31605 55.4983 7.80584C55.4983 6.29563 54.304 5.06616 52.837 5.06616C51.37 5.06616 50.1758 6.29563 50.1758 7.80584C50.1758 9.31605 51.37 10.5455 52.837 10.5455ZM52.837 6.89261C53.3257 6.89261 53.7241 7.30278 53.7241 7.80584C53.7241 8.3089 53.3257 8.71907 52.837 8.71907C52.3484 8.71907 51.9499 8.3089 51.9499 7.80584C51.9499 7.30278 52.3484 6.89261 52.837 6.89261Z" fill="#DD9933"/>
<path d="M33.3214 8.71898C34.7884 8.71898 35.9826 7.48952 35.9826 5.9793C35.9826 4.46909 34.7884 3.23962 33.3214 3.23962C31.8544 3.23962 30.6602 4.46909 30.6602 5.9793C30.6602 7.48952 31.8544 8.71898 33.3214 8.71898ZM33.3214 5.06608C33.8101 5.06608 34.2085 5.47624 34.2085 5.9793C34.2085 6.48236 33.8101 6.89253 33.3214 6.89253C32.8327 6.89253 32.4343 6.48236 32.4343 5.9793C32.4343 5.47624 32.8327 5.06608 33.3214 5.06608Z" fill="#DD9933"/>
<path d="M45.7397 7.80581C47.6964 7.80581 49.288 6.16722 49.288 4.1529C49.288 2.13859 47.6964 0.5 45.7397 0.5C43.7831 0.5 42.1914 2.13859 42.1914 4.1529C42.1914 6.16722 43.7831 7.80581 45.7397 7.80581ZM45.7397 2.32645C46.7181 2.32645 47.5139 3.14575 47.5139 4.1529C47.5139 5.16006 46.7181 5.97936 45.7397 5.97936C44.7614 5.97936 43.9656 5.16006 43.9656 4.1529C43.9656 3.14575 44.7614 2.32645 45.7397 2.32645Z" fill="#DD9933"/>
<path d="M39.5312 47.9878H41.3054V49.8142H39.5312V47.9878Z" fill="#DD9933"/>
<path d="M30.6602 27.8967H32.4343V29.7232H30.6602V27.8967Z" fill="#DD9933"/>
<path d="M27.1133 27.8967H28.8874V29.7232H27.1133V27.8967Z" fill="#DD9933"/>
<path d="M34.2109 27.8967H35.9851V29.7232H34.2109V27.8967Z" fill="#DD9933"/>
<path d="M4.93468 32.4629C6.40166 32.4629 7.59592 31.2334 7.59592 29.7232C7.59592 28.213 6.40166 26.9835 4.93468 26.9835C3.4677 26.9835 2.27344 28.213 2.27344 29.7232C2.27344 31.2334 3.4677 32.4629 4.93468 32.4629ZM4.93468 28.81C5.42333 28.81 5.82176 29.2201 5.82176 29.7232C5.82176 30.2263 5.42333 30.6364 4.93468 30.6364C4.44602 30.6364 4.0476 30.2263 4.0476 29.7232C4.0476 29.2201 4.44602 28.81 4.93468 28.81Z" fill="#DD9933"/>
<path d="M10.2593 21.5042C12.2159 21.5042 13.8076 19.8656 13.8076 17.8513C13.8076 15.837 12.2159 14.1984 10.2593 14.1984C8.30261 14.1984 6.71094 15.837 6.71094 17.8513C6.71094 19.8656 8.30261 21.5042 10.2593 21.5042ZM10.2593 16.0248C11.2376 16.0248 12.0334 16.8441 12.0334 17.8513C12.0334 18.8584 11.2376 19.6777 10.2593 19.6777C9.28094 19.6777 8.4851 18.8584 8.4851 17.8513C8.4851 16.8441 9.28094 16.0248 10.2593 16.0248Z" fill="#DD9933"/>
<path d="M4.93468 11.4587C6.40166 11.4587 7.59592 10.2293 7.59592 8.71905C7.59592 7.20883 6.40166 5.97937 4.93468 5.97937C3.4677 5.97937 2.27344 7.20883 2.27344 8.71905C2.27344 10.2293 3.4677 11.4587 4.93468 11.4587ZM4.93468 7.80582C5.42333 7.80582 5.82176 8.21599 5.82176 8.71905C5.82176 9.22211 5.42333 9.63227 4.93468 9.63227C4.44602 9.63227 4.0476 9.22211 4.0476 8.71905C4.0476 8.21599 4.44602 7.80582 4.93468 7.80582Z" fill="#DD9933"/>
</g>
<defs>
<clipPath id="clip0_1_5">
<rect width="55" height="57" fill="white" transform="translate(0.5 0.5)"/>
</clipPath>
</defs>
</svg>
