<svg width="50" height="51" viewBox="0 0 50 51" fill="none" xmlns="http://www.w3.org/2000/svg">
<path d="M17.9481 6.94646C18.6237 6.27249 19.6776 6.12465 20.5122 6.58829L22.5286 7.70782C23.5402 7.26722 24.7646 7.45898 25.5914 8.28444L43.2286 25.8909L43.7744 25.3464C44.047 25.0741 44.485 25.0674 44.7654 25.3273L44.7673 25.3278L44.7869 25.3474C45.0659 25.6272 45.0656 26.0798 44.7861 26.3589L35.642 35.4867C35.3626 35.7658 34.9095 35.7658 34.6304 35.4859C34.3509 35.2064 34.3518 34.7533 34.6312 34.4744L35.175 33.9314L17.5451 16.3322C17.5452 16.3324 17.5449 16.332 17.5451 16.3322C16.7424 15.5528 16.509 14.2823 16.961 13.2678L15.8422 11.2593C15.3761 10.4227 15.5235 9.36642 16.2014 8.68992L16.533 8.35891L10.7856 2.62146C10.5062 2.34241 10.5058 1.88935 10.7849 1.60986L17.9481 6.94646ZM17.9481 6.94646L17.5457 7.34806L11.7964 1.60907M17.9481 6.94646L11.7964 1.60907ZM11.7964 1.60907C11.5166 1.33007 11.0639 1.33036 10.7849 1.60986L11.7964 1.60907ZM19.8177 7.83872L21.3024 8.6629L17.9167 12.0429L17.0918 10.5627C16.9358 10.2827 16.9855 9.9284 17.2124 9.70214L18.9588 7.95867C19.1848 7.73305 19.5387 7.68363 19.8177 7.83872ZM39.9602 24.6498L42.2146 26.9005L36.1874 32.9197L18.5545 15.3175L18.5531 15.3161C18.036 14.8207 18.036 13.9231 18.5531 13.4281L18.5545 13.4267L22.6926 9.29565C23.2127 8.77647 24.0599 8.77647 24.58 9.29565L25.8866 10.6L23.1633 13.3187C22.8839 13.5977 22.883 14.0508 23.1626 14.3303C23.4417 14.6101 23.8947 14.61 24.1741 14.331L26.8992 11.6108L29.152 13.8598L27.5896 15.4193C27.3103 15.6983 27.3093 16.1513 27.5888 16.4309C27.868 16.7108 28.321 16.7108 28.6005 16.4317L30.1644 14.8703L32.4172 17.1194L29.694 19.838C29.4147 20.117 29.4137 20.57 29.6931 20.8496C29.9723 21.1295 30.4254 21.1294 30.7048 20.8504L33.4299 18.1301L35.6827 20.3792L34.1203 21.9387C33.8409 22.2177 33.84 22.6707 34.1195 22.9503C34.3986 23.2302 34.8517 23.2301 35.1311 22.9511L36.695 21.39L38.9478 23.6391L36.2243 26.3577C35.9449 26.6367 35.944 27.0897 36.2234 27.3693C36.5026 27.6492 36.9557 27.6491 37.2351 27.3701L39.9602 24.6498Z" fill="#DD9933"/>
<path d="M17.9481 6.94646C18.6237 6.27249 19.6776 6.12465 20.5122 6.58829L22.5286 7.70782C23.5402 7.26722 24.7646 7.45898 25.5914 8.28444L43.2286 25.8909L43.7744 25.3464C44.047 25.0741 44.485 25.0674 44.7654 25.3273L44.7673 25.3278L44.7869 25.3474C45.0659 25.6272 45.0656 26.0798 44.7861 26.3589M17.9481 6.94646L10.7849 1.60986M17.9481 6.94646L17.5457 7.34806L11.7964 1.60907M17.9481 6.94646L11.7964 1.60907M44.7861 26.3589L44.7154 26.2882M44.7861 26.3589L35.642 35.4867C35.3626 35.7658 34.9095 35.7658 34.6304 35.4859C34.3509 35.2064 34.3518 34.7533 34.6312 34.4744M34.6312 34.4744L34.7018 34.5451M34.6312 34.4744L35.175 33.9314L17.5451 16.3322M17.5451 16.3322C17.5449 16.332 17.5452 16.3324 17.5451 16.3322ZM17.5451 16.3322C16.7424 15.5528 16.509 14.2823 16.961 13.2678L15.8422 11.2593C15.3761 10.4227 15.5235 9.36642 16.2014 8.68992L16.533 8.35891L10.7856 2.62146C10.5062 2.34241 10.5058 1.88935 10.7849 1.60986M10.7849 1.60986C11.0639 1.33036 11.5166 1.33007 11.7964 1.60907M10.7849 1.60986L11.7964 1.60907M19.8177 7.83872L21.3024 8.6629L17.9167 12.0429L17.0918 10.5627C16.9358 10.2827 16.9855 9.9284 17.2124 9.70214L18.9588 7.95867C19.1848 7.73305 19.5387 7.68363 19.8177 7.83872ZM39.9602 24.6498L42.2146 26.9005L36.1874 32.9197L18.5545 15.3175L18.5531 15.3161C18.036 14.8207 18.036 13.9231 18.5531 13.4281L18.5545 13.4267L22.6926 9.29565C23.2127 8.77647 24.0599 8.77647 24.58 9.29565L25.8866 10.6L23.1633 13.3187C22.8839 13.5977 22.883 14.0508 23.1626 14.3303C23.4417 14.6101 23.8947 14.61 24.1741 14.331L26.8992 11.6108L29.152 13.8598L27.5896 15.4193C27.3103 15.6983 27.3093 16.1513 27.5888 16.4309C27.868 16.7108 28.321 16.7108 28.6005 16.4317L30.1644 14.8703L32.4172 17.1194L29.694 19.838C29.4147 20.117 29.4137 20.57 29.6931 20.8496C29.9723 21.1295 30.4254 21.1294 30.7048 20.8504L33.4299 18.1301L35.6827 20.3792L34.1203 21.9387C33.8409 22.2177 33.84 22.6707 34.1195 22.9503C34.3986 23.2302 34.8517 23.2301 35.1311 22.9511L36.695 21.39L38.9478 23.6391L36.2243 26.3577C35.9449 26.6367 35.944 27.0897 36.2234 27.3693C36.5026 27.6492 36.9557 27.6491 37.2351 27.3701L39.9602 24.6498Z" stroke="#DD9933" stroke-width="0.2"/>
<path d="M42.7066 37.735L39.2036 34.2382C38.9241 33.9592 38.9237 33.5061 39.2028 33.2266M42.7066 37.735L46.0981 34.4906L46.0274 34.42M42.7066 37.735L42.1892 38.2515C41.9098 38.5305 41.9089 38.9836 42.1885 39.2632C42.4676 39.543 42.9206 39.5429 43.2 39.2639L48.5698 33.9031C48.8494 33.6243 48.8497 33.1715 48.5703 32.8918C48.2912 32.6121 47.8381 32.6117 47.5587 32.8912L47.0398 33.4092M42.7066 37.735L47.0398 33.4092ZM39.2028 33.2266C39.4819 32.9471 39.9346 32.9468 40.2144 33.2258L43.719 36.7242M43.719 36.7242L43.6484 36.7948L43.719 36.8655L43.7897 36.7948L43.719 36.7242ZM43.719 36.7242L46.0274 34.42ZM46.0274 34.42L42.5244 30.9232C42.2449 30.6442 42.2445 30.1912 42.5236 29.9117M46.0274 34.42L46.0981 34.3493L42.5236 29.9117M42.5236 29.9117C42.8027 29.6317 43.2554 29.6318 43.5352 29.9108L47.0398 33.4092M42.5236 29.9117L47.0398 33.4092Z" fill="#DD9933"/>
<path d="M42.7066 37.735L39.2036 34.2382C38.9241 33.9592 38.9237 33.5061 39.2028 33.2266M42.7066 37.735L46.0981 34.4906L46.0274 34.42M42.7066 37.735L42.1892 38.2515C41.9098 38.5305 41.9089 38.9836 42.1885 39.2632C42.4676 39.543 42.9206 39.5429 43.2 39.2639L48.5698 33.9031C48.8494 33.6243 48.8497 33.1715 48.5703 32.8918C48.2912 32.6121 47.8381 32.6117 47.5587 32.8912L47.0398 33.4092M42.7066 37.735L47.0398 33.4092M39.2028 33.2266L39.2736 33.2973M39.2028 33.2266C39.4819 32.9471 39.9346 32.9468 40.2144 33.2258L43.719 36.7242M46.0274 34.42L43.719 36.7242M46.0274 34.42L42.5244 30.9232C42.2449 30.6442 42.2445 30.1912 42.5236 29.9117M46.0274 34.42L46.0981 34.3493L42.5236 29.9117M47.0398 33.4092L43.5352 29.9108C43.2554 29.6318 42.8027 29.6317 42.5236 29.9117M47.0398 33.4092L42.5236 29.9117M43.719 36.7242L43.6484 36.7948L43.719 36.8655L43.7897 36.7948L43.719 36.7242ZM42.5236 29.9117L42.5944 29.9823" stroke="#DD9933" stroke-width="0.2"/>
<path d="M7.14609 10.8416C7.14609 12.4562 8.46163 13.7698 10.0784 13.7698C11.6951 13.7698 13.0103 12.4562 13.0103 10.8416C13.0103 10.4685 12.8784 10.0597 12.682 9.65564C12.485 9.2502 12.2191 8.84166 11.9424 8.46706C11.3897 7.71868 10.7873 7.09731 10.5851 6.89472C10.3168 6.61592 9.83993 6.616 9.57136 6.89468C9.36911 7.0971 8.76674 7.71838 8.21395 8.46678C7.93726 8.84138 7.6714 9.24995 7.47436 9.65544C7.27798 10.0596 7.14609 10.4685 7.14609 10.8416ZM8.57687 10.8415C8.57687 10.7263 8.62235 10.5674 8.71153 10.373C8.79964 10.1811 8.9259 9.964 9.07713 9.73546C9.3596 9.30858 9.72477 8.84826 10.0784 8.44708C10.432 8.84824 10.7972 9.30848 11.0796 9.73531C11.2309 9.96383 11.3571 10.1809 11.4452 10.3729C11.5344 10.5672 11.5799 10.7262 11.5799 10.8415C11.5799 11.667 10.9063 12.339 10.0784 12.339C9.25007 12.339 8.57687 11.6669 8.57687 10.8415Z" fill="#DD9933" stroke="#DD9933" stroke-width="0.2"/>
<path d="M17.9479 46.1301C18.2877 46.1301 18.5633 45.8545 18.5633 45.5146V31.8857C18.5633 30.904 18.1822 29.9799 17.4905 29.2838L15.6864 27.4674V24.8775C16.5566 24.6402 17.1991 23.8449 17.1991 22.9004V21.5035C17.1991 20.3725 16.279 19.4524 15.148 19.4524H4.91531C3.7843 19.4524 2.86415 20.3725 2.86415 21.5035V22.9004C2.86415 23.845 3.50668 24.6402 4.37685 24.8775V27.4674L2.57281 29.2838C1.88106 29.9802 1.5 30.9043 1.5 31.8857V46.8335C1.5 48.3037 2.69632 49.5 4.1665 49.5H15.8957C17.3663 49.5 18.5622 48.3037 18.5622 46.8335V44.9464C18.5622 44.6066 18.2867 44.331 17.9468 44.331C17.607 44.331 17.3314 44.6065 17.3314 44.9464L17.3318 46.8335C17.3318 47.6254 16.6876 48.2696 15.8957 48.2696L4.16646 48.2692C3.3746 48.2692 2.73039 47.625 2.73039 46.8332V31.8853C2.73039 31.2311 2.98419 30.615 3.44558 30.1506L5.42843 28.1541C5.54293 28.0389 5.60722 27.8829 5.60722 27.7205V24.9511H14.4556V27.7205C14.4556 27.8829 14.5198 28.0389 14.6344 28.1541L16.6172 30.1506C17.0783 30.615 17.3324 31.2311 17.3324 31.8853V45.5143C17.3321 45.8542 17.608 46.1301 17.9479 46.1301ZM4.09547 22.9005V21.5036C4.09547 21.0513 4.46345 20.683 4.91612 20.683H15.1488C15.6011 20.683 15.9694 21.0509 15.9694 21.5036V22.9005C15.9694 23.3528 15.6014 23.7212 15.1488 23.7212H4.91612C4.46378 23.7212 4.09547 23.3528 4.09547 22.9005Z" fill="#DD9933"/>
<mask id="mask0_1_24" style="mask-type:luminance" maskUnits="userSpaceOnUse" x="0" y="18" width="20" height="33">
<path d="M19.5 18.4524H0.5V50.4524H19.5V18.4524Z" fill="white"/>
<path d="M17.9479 46.1301C18.2877 46.1301 18.5633 45.8545 18.5633 45.5146V31.8857C18.5633 30.904 18.1822 29.9799 17.4905 29.2838L15.6864 27.4674V24.8775C16.5566 24.6402 17.1991 23.8449 17.1991 22.9004V21.5035C17.1991 20.3725 16.279 19.4524 15.148 19.4524H4.91531C3.7843 19.4524 2.86415 20.3725 2.86415 21.5035V22.9004C2.86415 23.845 3.50668 24.6402 4.37685 24.8775V27.4674L2.57281 29.2838C1.88106 29.9802 1.5 30.9043 1.5 31.8857V46.8335C1.5 48.3037 2.69632 49.5 4.1665 49.5H15.8957C17.3663 49.5 18.5622 48.3037 18.5622 46.8335V44.9464C18.5622 44.6066 18.2867 44.331 17.9468 44.331C17.607 44.331 17.3314 44.6065 17.3314 44.9464L17.3318 46.8335C17.3318 47.6254 16.6876 48.2696 15.8957 48.2696L4.16646 48.2692C3.3746 48.2692 2.73039 47.625 2.73039 46.8332V31.8853C2.73039 31.2311 2.98419 30.615 3.44558 30.1506L5.42843 28.1541C5.54293 28.0389 5.60722 27.8829 5.60722 27.7205V24.9511H14.4556V27.7205C14.4556 27.8829 14.5198 28.0389 14.6344 28.1541L16.6172 30.1506C17.0783 30.615 17.3324 31.2311 17.3324 31.8853V45.5143C17.3321 45.8542 17.608 46.1301 17.9479 46.1301ZM4.09547 22.9005V21.5036C4.09547 21.0513 4.46345 20.683 4.91612 20.683H15.1488C15.6011 20.683 15.9694 21.0509 15.9694 21.5036V22.9005C15.9694 23.3528 15.6014 23.7212 15.1488 23.7212H4.91612C4.46378 23.7212 4.09547 23.3528 4.09547 22.9005Z" fill="#00C3FF"/>
</mask>
<g mask="url(#mask0_1_24)">
<path d="M15.6864 27.4674H15.4864V27.5499L15.5445 27.6084L15.6864 27.4674ZM15.6864 24.8775L15.6338 24.6846L15.4864 24.7248V24.8775H15.6864ZM4.37684 24.8775H4.57684V24.7248L4.42947 24.6846L4.37684 24.8775ZM4.37684 27.4674L4.51874 27.6084L4.57684 27.5499V27.4674H4.37684ZM5.60721 24.9511V24.7511H5.40721V24.9511H5.60721ZM14.4556 24.9511H14.6556V24.7511H14.4556V24.9511ZM17.9479 46.3301C18.3982 46.3301 18.7633 45.965 18.7633 45.5146H18.3633C18.3633 45.744 18.1772 45.9301 17.9479 45.9301V46.3301ZM18.7633 45.5146V31.8857H18.3633V45.5146H18.7633ZM18.7633 31.8857C18.7633 30.8512 18.3613 29.8764 17.6323 29.1428L17.3486 29.4247C18.0031 30.0833 18.3633 30.9568 18.3633 31.8857H18.7633ZM17.6323 29.1428L15.8283 27.3265L15.5445 27.6084L17.3486 29.4247L17.6323 29.1428ZM15.8864 27.4674V24.8775H15.4864V27.4674H15.8864ZM15.739 25.0705C16.6934 24.8101 17.3991 23.938 17.3991 22.9004H16.9991C16.9991 23.7519 16.4197 24.4702 15.6338 24.6846L15.739 25.0705ZM17.3991 22.9004V21.5035H16.9991V22.9004H17.3991ZM17.3991 21.5035C17.3991 20.2621 16.3895 19.2524 15.148 19.2524V19.6524C16.1686 19.6524 16.9991 20.483 16.9991 21.5035H17.3991ZM15.148 19.2524H4.9153V19.6524H15.148V19.2524ZM4.9153 19.2524C3.67384 19.2524 2.66414 20.262 2.66414 21.5035H3.06414C3.06414 20.4829 3.89474 19.6524 4.9153 19.6524V19.2524ZM2.66414 21.5035V22.9004H3.06414V21.5035H2.66414ZM2.66414 22.9004C2.66414 23.9381 3.36982 24.8102 4.32421 25.0705L4.42947 24.6846C3.64352 24.4702 3.06414 23.752 3.06414 22.9004H2.66414ZM4.17684 24.8775V27.4674H4.57684V24.8775H4.17684ZM4.23494 27.3265L2.43089 29.1429L2.7147 29.4247L4.51874 27.6084L4.23494 27.3265ZM2.43089 29.1429C1.70195 29.8767 1.29999 30.8515 1.29999 31.8857H1.69999C1.69999 30.9572 2.06015 30.0837 2.7147 29.4247L2.43089 29.1429ZM1.29999 31.8857V46.8335H1.69999V31.8857H1.29999ZM1.29999 46.8335C1.29999 48.4141 2.58586 49.7 4.16649 49.7V49.3C2.80677 49.3 1.69999 48.1932 1.69999 46.8335H1.29999ZM4.16649 49.7H15.8957V49.3H4.16649V49.7ZM15.8957 49.7C17.4767 49.7 18.7622 48.4141 18.7622 46.8335H18.3622C18.3622 48.1932 17.2558 49.3 15.8957 49.3V49.7ZM18.7622 46.8335V44.9464H18.3622V46.8335H18.7622ZM18.7622 44.9464C18.7622 44.4961 18.3971 44.131 17.9468 44.131V44.531C18.1762 44.531 18.3622 44.717 18.3622 44.9464H18.7622ZM17.9468 44.131C17.4965 44.131 17.1314 44.4961 17.1314 44.9464H17.5314C17.5314 44.717 17.7174 44.531 17.9468 44.531V44.131ZM17.1314 44.9464L17.1318 46.8335H17.5318L17.5314 44.9464H17.1314ZM17.1318 46.8335C17.1318 47.5149 16.5771 48.0696 15.8957 48.0696V48.4696C16.798 48.4696 17.5318 47.7358 17.5318 46.8335H17.1318ZM15.8957 48.0696L4.16646 48.0692L4.16645 48.4692L15.8957 48.4696V48.0696ZM4.16646 48.0692C3.48506 48.0692 2.93039 47.5146 2.93039 46.8332H2.53038C2.53038 47.7355 3.26414 48.4692 4.16645 48.4692L4.16646 48.0692ZM2.93039 46.8332V31.8853H2.53038V46.8332H2.93039ZM2.93039 31.8853C2.93039 31.2839 3.1633 30.7185 3.58745 30.2916L3.30369 30.0097C2.80505 30.5116 2.53038 31.1783 2.53038 31.8853H2.93039ZM3.58745 30.2916L5.57032 28.295L5.28658 28.0131L3.30369 30.0097L3.58745 30.2916ZM5.57032 28.295C5.72212 28.1423 5.80721 27.9357 5.80721 27.7205H5.40721C5.40721 27.8301 5.36379 27.9354 5.28658 28.0131L5.57032 28.295ZM5.80721 27.7205V24.9511H5.40721V27.7205H5.80721ZM5.60721 25.1511H14.4556V24.7511H5.60721V25.1511ZM14.2556 24.9511V27.7205H14.6556V24.9511H14.2556ZM14.2556 27.7205C14.2556 27.9357 14.3407 28.1424 14.4925 28.2951L14.7763 28.0132C14.6991 27.9355 14.6556 27.8301 14.6556 27.7205H14.2556ZM14.4925 28.2951L16.4753 30.2916L16.7591 30.0097L14.7763 28.0132L14.4925 28.2951ZM16.4753 30.2916C16.8992 30.7185 17.1324 31.2839 17.1324 31.8853H17.5324C17.5324 31.1782 17.2573 30.5116 16.7591 30.0097L16.4753 30.2916ZM17.1324 31.8853V45.5143L17.5324 45.5145V31.8853H17.1324ZM17.1324 45.5143C17.1319 45.9648 17.4976 46.3301 17.9479 46.3301V45.9301C17.7184 45.9301 17.5322 45.7437 17.5324 45.5145L17.1324 45.5143ZM4.29546 22.9005V21.5036H3.89546V22.9005H4.29546ZM4.29546 21.5036C4.29546 21.1617 4.57395 20.883 4.91611 20.883V20.483C4.35293 20.483 3.89546 20.9409 3.89546 21.5036H4.29546ZM4.91611 20.883H15.1488V20.483H4.91611V20.883ZM15.1488 20.883C15.4907 20.883 15.7694 21.1614 15.7694 21.5036H16.1694C16.1694 20.9404 15.7115 20.483 15.1488 20.483V20.883ZM15.7694 21.5036V22.9005H16.1694V21.5036H15.7694ZM15.7694 22.9005C15.7694 23.2424 15.4909 23.5212 15.1488 23.5212V23.9212C15.712 23.9212 16.1694 23.4633 16.1694 22.9005H15.7694ZM15.1488 23.5212H4.91611V23.9212H15.1488V23.5212ZM4.91611 23.5212C4.57423 23.5212 4.29546 23.2424 4.29546 22.9005H3.89546C3.89546 23.4633 4.35331 23.9212 4.91611 23.9212V23.5212Z" fill="#DD9933"/>
</g>
</svg>
