<svg width="59" height="51" viewBox="0 0 59 51" fill="none" xmlns="http://www.w3.org/2000/svg">
<g clip-path="url(#clip0_1_184)">
<path d="M12.2437 18.4313L12.3769 18.4781V18.337L12.377 14.3534C12.377 13.4129 11.6085 12.6444 10.668 12.6444H7.00744C6.06696 12.6444 5.29845 13.4129 5.29845 14.3534V18.337V18.4781L5.43163 18.4313L6.62155 18.0127C6.62147 18.0127 6.62163 18.0127 6.62155 18.0127C7.3345 17.7652 8.07717 17.6414 8.83769 17.6414C9.59831 17.6414 10.3467 17.7653 11.0535 18.0126L12.2437 18.4313ZM10.3825 14.6328V15.7827C9.87616 15.6939 9.35961 15.647 8.83769 15.647C8.31577 15.647 7.7992 15.6939 7.29282 15.7827V14.6328H10.3825Z" fill="#DD9933"/>
<path d="M6.62155 18.0127L5.43163 18.4313L5.29845 18.4781V18.337V14.3534C5.29845 13.4129 6.06696 12.6444 7.00744 12.6444H10.668C11.6085 12.6444 12.377 13.4129 12.377 14.3534L12.3769 18.337V18.4781L12.2437 18.4313L11.0535 18.0126C10.3467 17.7653 9.59831 17.6414 8.83769 17.6414C8.07717 17.6414 7.3345 17.7652 6.62155 18.0127ZM6.62155 18.0127C6.62163 18.0127 6.62147 18.0127 6.62155 18.0127ZM10.3825 14.6328V15.7827C9.87616 15.6939 9.35961 15.647 8.83769 15.647C8.31577 15.647 7.7992 15.6939 7.29282 15.7827V14.6328H10.3825Z" stroke="#DD9933" stroke-width="0.2"/>
<path d="M28.9336 22.1992H29.927L33.294 18.971H33.394V12.4514V12.3514H33.294H31.4996H31.3996V12.4514V18.971C31.3996 19.6515 30.8463 20.2048 30.1658 20.2048H28.9336H28.8336V20.3048V22.0992V22.1992H28.9336Z" fill="#DD9933" stroke="#DD9933" stroke-width="0.2"/>
<path d="M6.38393 16.0591C3.40083 17.0959 1.39999 19.9152 1.39999 23.0739V47.4663C1.39999 48.6463 2.36008 49.6 3.53368 49.6H14.1326C15.3068 49.6 16.26 48.6397 16.2663 47.4669V23.0739C16.2663 19.9151 14.2596 17.0959 11.2825 16.0591C10.4944 15.7863 9.66974 15.6468 8.83313 15.6468C7.99046 15.6468 7.17195 15.7863 6.38393 16.0591ZM3.40038 23.0739C3.40038 20.7656 4.86296 18.6983 7.04156 17.9407C7.61708 17.7411 8.21606 17.6412 8.83313 17.6412C9.45003 17.6412 10.0491 17.741 10.6307 17.9407C12.8096 18.7043 14.2719 20.7659 14.2719 23.0739V47.4663C14.2719 47.5427 14.209 47.6056 14.1327 47.6056H3.53964C3.46328 47.6056 3.40038 47.5427 3.40038 47.4663V23.0739Z" fill="#DD9933" stroke="#DD9933" stroke-width="0.2"/>
<path d="M16.1678 43.5886H16.2678V43.4886V25.9395V25.8395H16.1678H10.8962C9.74042 25.8395 8.79845 26.7815 8.79845 27.9373V41.4908C8.79845 42.6466 9.74052 43.5886 10.8962 43.5886H16.1678ZM10.8962 27.84L14.2734 27.8398V41.6002H10.8962C10.8378 41.6002 10.7929 41.5553 10.7929 41.4968V27.9433C10.7929 27.8849 10.8378 27.84 10.8962 27.84Z" fill="#DD9933" stroke="#DD9933" stroke-width="0.2"/>
<path d="M25.0556 30.7886C27.7427 30.7885 29.9286 28.6023 29.9286 25.9095V16.3627L36.5091 9.71053L36.5793 9.63949L36.5084 9.56916L35.2344 8.30711L35.1633 8.23668L35.0929 8.30782L28.5014 14.9711C28.1364 15.3425 27.9342 15.8283 27.9342 16.3513V25.9155C27.9342 27.4992 26.645 28.7941 25.0555 28.7941C23.4718 28.7941 22.1769 27.505 22.1769 25.9155V8.55796C22.1769 4.60894 18.968 1.4 15.0189 1.4C11.0699 1.4 7.86095 4.60883 7.86095 8.55796V13.6421V13.7421H7.96095H9.75532H9.85532V13.6421V8.55796C9.85532 5.71228 12.1732 3.39438 15.0189 3.39438C17.8646 3.39438 20.1825 5.71228 20.1825 8.55796V25.9155C20.1825 28.6026 22.3687 30.7886 25.0556 30.7886Z" fill="#DD9933" stroke="#DD9933" stroke-width="0.2"/>
<path d="M51.1865 24.4951H51.2865V24.3951L51.2866 22.505C51.2866 20.7989 49.902 19.4143 48.1959 19.4143H47.0415C45.3354 19.4143 43.9508 20.7989 43.9508 22.505V24.3951V24.4951H44.0508H51.1865ZM49.2921 22.5007H45.9451C45.9474 21.8999 46.4401 21.4087 47.0414 21.4087H48.1958C48.7971 21.4087 49.2898 21.8999 49.2921 22.5007Z" fill="#DD9933" stroke="#DD9933" stroke-width="0.2"/>
<path d="M56.7442 30.2974L56.8151 30.3683L56.8858 30.2972L58.1539 29.0233L58.2243 28.9526L58.1537 28.882L54.858 25.5863L54.8008 25.5291L54.7329 25.573L51.5629 27.6247L51.4789 27.679L51.5332 27.7629L52.5082 29.2702L52.5625 29.3542L52.6465 29.2998L54.5285 28.0817L56.7442 30.2974Z" fill="#DD9933" stroke="#DD9933" stroke-width="0.2"/>
<path d="M38.373 30.2972L38.4437 30.3683L38.5146 30.2974L40.7303 28.0817L42.6123 29.2998L42.6963 29.3542L42.7506 29.2702L43.7256 27.7629L43.7799 27.679L43.6959 27.6247L40.5259 25.573L40.458 25.5291L40.4008 25.5863L37.1051 28.882L37.0345 28.9526L37.1049 29.0233L38.373 30.2972Z" fill="#DD9933" stroke="#DD9933" stroke-width="0.2"/>
<path d="M51.7325 25.5717L51.8031 25.6423L51.8738 25.5718L53.4259 24.0255L55.711 24.5398L55.8085 24.5617L55.8305 24.4643L56.2253 22.7177L56.2473 22.6202L56.1498 22.5981L52.8481 21.8505L52.7944 21.8383L52.7554 21.8772L50.4645 24.1621L50.3936 24.2328L50.4644 24.3036L51.7325 25.5717Z" fill="#DD9933" stroke="#DD9933" stroke-width="0.2"/>
<path d="M43.3868 25.5718L43.4575 25.6422L43.5281 25.5716L44.7961 24.3036L44.8669 24.2328L44.796 24.1621L42.5052 21.8772L42.4662 21.8383L42.4125 21.8505L39.1107 22.5981L39.0132 22.6202L39.0353 22.7177L39.43 24.4643L39.4521 24.5617L39.5495 24.5398L41.8347 24.0255L43.3868 25.5718Z" fill="#DD9933" stroke="#DD9933" stroke-width="0.2"/>
<path d="M54.6387 36.1589H54.7387V36.0589V32.4163V32.3539L54.6828 32.3265L51.8297 30.9268L51.7398 30.8827L51.6958 30.9727L50.9063 32.5877L50.8623 32.6775L50.9522 32.7215L52.7443 33.5972V36.0589V36.1589H52.8443H54.6387Z" fill="#DD9933" stroke="#DD9933" stroke-width="0.2"/>
<path d="M42.4077 36.1947H42.5077V36.0947V33.633L44.2998 32.7572L44.3898 32.7132L44.3457 32.6233L43.5562 31.0143L43.5122 30.9247L43.4225 30.9685L40.5694 32.3621L40.5133 32.3895V32.452V36.0947V36.1947H40.6133H42.4077Z" fill="#DD9933" stroke="#DD9933" stroke-width="0.2"/>
<path d="M46.7344 23.3745H46.6344V23.4745V30.9093V31.0093H46.7344H48.5287H48.6287V30.9093V23.4745V23.3745H48.5287H46.7344Z" fill="#DD9933" stroke="#DD9933" stroke-width="0.2"/>
<path d="M48.0402 19.9642L47.9872 20.049L48.072 20.102L49.5938 21.0531L49.6786 21.1061L49.7316 21.0213L50.936 19.094L50.989 19.0092L50.9042 18.9562L49.3824 18.0052L49.2976 17.9522L49.2446 18.037L48.0402 19.9642Z" fill="#DD9933" stroke="#DD9933" stroke-width="0.2"/>
<path d="M44.3572 18.9544L44.2723 19.0074L44.3254 19.0922L45.5302 21.0194L45.5832 21.1042L45.668 21.0512L47.1898 20.1002L47.2746 20.0472L47.2216 19.9624L46.0168 18.0351L45.9638 17.9503L45.879 18.0033L44.3572 18.9544Z" fill="#DD9933" stroke="#DD9933" stroke-width="0.2"/>
<path d="M49.2871 21.2128V22.5005H45.9401V21.2128V20.9607L45.7673 21.1442L44.2182 22.7891C42.9237 24.1686 42.1812 26.2404 42.1812 28.4621C42.1812 30.3341 42.7064 32.1075 43.6651 33.4546C44.6909 34.8993 46.0949 35.7039 47.6166 35.7039C49.1443 35.7039 50.5423 34.8994 51.5622 33.4545C52.5208 32.1076 53.046 30.3341 53.046 28.4621C53.046 26.2345 52.3097 24.1687 51.009 22.789L49.4599 21.1442L49.2871 20.9607V21.2128ZM45.2938 32.2989C44.5723 31.2899 44.1756 29.9291 44.1756 28.4627C44.1756 26.9391 44.6255 25.4904 45.3867 24.4953H49.8464C50.6077 25.4904 51.0575 26.9392 51.0575 28.4627C51.0575 29.9288 50.6553 31.2895 49.9395 32.2987C49.2883 33.2197 48.4601 33.71 47.6166 33.71C46.7731 33.71 45.945 33.2199 45.2938 32.2989Z" fill="#DD9933" stroke="#DD9933" stroke-width="0.2"/>
<path d="M38.2878 7.36505L38.1882 7.37446L38.1976 7.47401L38.3664 9.26017L38.3758 9.35972L38.4754 9.35031L40.2615 9.18152L40.3611 9.17212L40.3517 9.07256L40.1829 7.28641L40.1735 7.18685L40.0739 7.19626L38.2878 7.36505Z" fill="#DD9933" stroke="#DD9933" stroke-width="0.2"/>
<path d="M43.0868 8.12533L42.9882 8.10829L42.9712 8.20682L42.6655 9.97469L42.6484 10.0732L42.747 10.0903L44.5148 10.396L44.6134 10.4131L44.6304 10.3145L44.9361 8.54665L44.9532 8.44811L44.8546 8.43107L43.0868 8.12533Z" fill="#DD9933" stroke="#DD9933" stroke-width="0.2"/>
</g>
<defs>
<clipPath id="clip0_1_184">
<rect width="58" height="50" fill="white" transform="translate(0.5 0.5)"/>
</clipPath>
</defs>
</svg>
