<svg width="44" height="53" viewBox="0 0 44 53" fill="none" xmlns="http://www.w3.org/2000/svg">
<g clip-path="url(#clip0_1_203)">
<mask id="mask0_1_203" style="mask-type:luminance" maskUnits="userSpaceOnUse" x="0" y="0" width="44" height="53">
<path d="M43.5 0.5H0.5V52.5H43.5V0.5Z" fill="white"/>
</mask>
<g mask="url(#mask0_1_203)">
<path d="M41.1182 25.7695L41.9639 24.4867C42.7206 23.3349 42.8863 21.8829 42.4069 20.586L40.3201 14.947C41.3039 13.7596 41.8447 12.2592 41.8498 10.7078C41.8435 5.07259 37.3398 0.506363 31.7833 0.5H23.8439C14.1489 0.5 6.28852 8.47053 6.28852 18.3029C6.28852 21.0658 6.92222 23.7918 8.14068 26.2646L9.19601 28.4026C10.0004 30.0417 10.4207 31.8464 10.4233 33.6777C10.4207 34.454 10.3417 35.2277 10.1886 35.9888C9.87614 35.6541 9.35663 35.6401 9.02661 35.957C8.95633 36.0244 8.89861 36.1033 8.85595 36.1911L6.3751 41.2231C6.19315 41.5922 6.30358 42.0402 6.63486 42.2794L6.67752 42.3113L6.414 42.5403C3.70227 44.8985 1.67318 47.9592 0.542554 51.3966C0.398247 51.8357 0.632904 52.3116 1.06583 52.458C1.1499 52.486 1.23774 52.5013 1.32684 52.5013H26.9635C27.4202 52.5013 27.7904 52.1271 27.7917 51.6639C27.7917 51.5633 27.7741 51.4628 27.739 51.3673C27.6185 51.0441 27.4855 50.7259 27.3449 50.4141L28.4956 48.467C29.1143 47.4922 30.3892 47.202 31.3592 47.8141L32.1924 48.3779C34.2642 49.7804 37.065 49.2153 38.4479 47.1142C38.7754 46.6166 39.0037 46.0566 39.1205 45.4699L40.1369 40.3183C40.7116 39.6464 41.0253 38.786 41.0228 37.8965C41.0228 37.0591 40.8609 36.2293 40.551 35.4543L41.5762 35.1934C42.939 34.846 43.7659 33.4435 43.4233 32.0614C43.4008 31.9685 43.3719 31.8756 43.3393 31.7865L41.1194 25.772L41.1182 25.7695ZM40.1959 10.7091C40.1908 11.759 39.8545 12.781 39.2372 13.6234L36.6082 11.6852C35.9821 8.06711 34.2479 4.73916 31.6516 2.17734H31.7833C36.4275 2.18243 40.1908 5.99907 40.1959 10.7091ZM2.51267 50.8227C3.59812 48.117 5.30472 45.7143 7.49067 43.813L8.06413 43.3141L9.20479 44.14C11.4096 45.7385 13.8603 46.9577 16.4566 47.7467C18.5773 48.3945 20.5599 49.4368 22.3029 50.8227H2.51267ZM24.8202 50.8227C22.5941 48.6477 19.8899 47.0429 16.9309 46.1406C14.5091 45.405 12.2227 44.2686 10.1648 42.777L8.16954 41.3313L9.76948 38.0861L10.417 38.8751C12.2654 41.1277 14.7211 42.7859 17.4843 43.6463C21.0857 44.784 24.0622 47.3814 25.7086 50.8227H24.8189H24.8202ZM17.9724 42.0427C15.5154 41.2791 13.3307 39.8054 11.6869 37.8023L11.4987 37.5719C11.8325 36.4533 12.0207 35.2952 12.0583 34.1269C13.731 32.7754 14.7964 30.7977 15.0135 28.6406C15.0511 28.2906 15.1202 27.9444 15.2193 27.6059L15.7765 29.8623C16.2131 31.6376 17.9862 32.7168 19.7355 32.274C19.9677 32.2154 20.1935 32.1301 20.4069 32.022L20.757 31.8451L19.4193 34.2173C17.9097 36.8962 18.827 40.3081 21.4685 41.8391C21.5563 41.89 21.6454 41.9384 21.7357 41.9842C24.066 43.1754 25.9809 45.0627 27.2207 47.3916C27.1718 47.4616 27.1191 47.5303 27.0751 47.6042L26.4314 48.6948C24.4926 45.5183 21.4898 43.1563 17.9737 42.0427H17.9724ZM16.2131 23.2039C16.2131 22.2456 16.9799 21.468 17.9248 21.468C18.2636 21.468 18.5936 21.5698 18.8747 21.7594C19.8786 22.4377 20.585 23.4838 20.8435 24.6789L21.8775 29.3978L19.6627 30.5203C18.8659 30.925 17.8972 30.5966 17.4981 29.7885C17.4454 29.6816 17.4052 29.5696 17.3764 29.4538L16.572 26.1882C16.3324 25.2121 16.2119 24.2092 16.2131 23.2026V23.2039ZM38.7842 39.3269C38.6687 39.444 38.5909 39.5929 38.5583 39.7558L37.4954 45.1403C37.188 46.7095 35.6834 47.7276 34.1374 47.4145C33.771 47.3407 33.4234 47.1944 33.1122 46.9844L32.279 46.4206C31.1459 45.6507 29.6852 45.5845 28.4894 46.2475C27.0839 43.7722 24.9946 41.7691 22.4799 40.4837C20.5763 39.5178 19.8045 37.1685 20.7582 35.2379C20.7896 35.1743 20.8235 35.1107 20.8573 35.0496L23.5477 30.2734C23.6494 30.0927 23.682 29.8789 23.6381 29.6752L22.4636 24.3187C22.1122 22.6999 21.1547 21.2835 19.7932 20.3672C18.2473 19.321 16.1567 19.7448 15.1252 21.314C14.7575 21.874 14.5605 22.5319 14.5592 23.2039C14.5592 23.7778 14.5944 24.3518 14.6647 24.9219C13.9444 25.9757 13.4989 27.1974 13.3684 28.4726C13.2417 29.7325 12.7472 30.925 11.9504 31.8998C11.7597 30.4223 11.3293 28.9867 10.6767 27.6517L9.62141 25.5137C5.69498 17.5483 8.87853 7.86221 16.7339 3.88013C18.9412 2.76148 21.3756 2.17861 23.8439 2.17861H29.1494C31.767 4.2301 33.6731 7.07445 34.5917 10.2968C33.899 9.87553 33.1825 9.49501 32.4459 9.15648C31.2438 6.81356 29.5409 4.77352 27.4616 3.18527L26.469 4.52663C27.8055 5.54856 28.9737 6.7792 29.9287 8.17274C25.1414 6.66466 19.9815 6.937 15.3736 8.94014L13.4085 9.79535L14.0598 11.3365L16.0237 10.4813C18.443 9.42756 21.0481 8.88541 23.682 8.88796C24.5679 8.89178 25.4514 8.95668 26.3285 9.0814C25.9182 10.3617 26.1842 11.7654 27.0337 12.7988L29.9914 16.3978C26.971 19.7156 25.2983 24.0693 25.3108 28.5859C25.3171 31.2317 26.5443 33.7235 28.6286 35.3156L31.7557 37.6954C32.225 38.0505 32.7947 38.2426 33.3795 38.2439C34.2566 38.2414 35.0974 37.8888 35.7186 37.2614C36.5631 36.3998 37.6786 35.8666 38.8707 35.7521C39.197 36.4189 39.3664 37.152 39.3664 37.8965C39.3689 38.4335 39.1594 38.9489 38.7842 39.3295V39.3269ZM41.1746 33.5657L39.2447 34.0544C37.4804 34.0811 35.7951 34.8052 34.549 36.0728C34.0898 36.5869 33.3381 36.7027 32.7483 36.3515L29.62 33.9717C27.9523 32.6965 26.9697 30.7022 26.9647 28.5833C26.9534 24.2462 28.6525 20.0859 31.6842 17.0278C31.9866 16.721 32.0092 16.2311 31.7357 15.8976L28.3036 11.7234C27.9736 11.32 27.7917 10.8122 27.7917 10.2879C27.7929 9.97479 27.8594 9.66427 27.9874 9.3792C30.5586 9.96715 32.9855 11.082 35.1162 12.6562L38.6813 15.2855L40.8584 21.1715C41.1508 21.963 41.0504 22.8475 40.5874 23.5513L39.507 25.1943C39.3601 25.4195 39.33 25.7021 39.4241 25.954L41.7933 32.3694C41.9652 32.8377 41.7305 33.3595 41.2675 33.5339C41.2374 33.5453 41.206 33.5555 41.1746 33.5631V33.5657Z" fill="#DD9933"/>
</g>
</g>
<defs>
<clipPath id="clip0_1_203">
<rect width="43" height="52" fill="white" transform="translate(0.5 0.5)"/>
</clipPath>
</defs>
</svg>
