<svg xmlns="http://www.w3.org/2000/svg" width="18" height="18" fill="none"><g clip-path="url(#a)"><path fill="#fff" d="M6.188 4.5h5.03v1.969a.844.844 0 0 0 1.44.596l2.814-2.812a.844.844 0 0 0 0-1.193L12.659.247a.844.844 0 0 0-1.44.597v1.969H6.187A6.175 6.175 0 0 0 0 9a.844.844 0 0 0 1.688 0c0-2.482 2.017-4.5 4.5-4.5Zm10.968 3.656a.844.844 0 0 0-.843.844c0 2.482-2.02 4.5-4.5 4.5H6.75v-1.969a.844.844 0 0 0-1.441-.597l-2.813 2.812a.844.844 0 0 0 0 1.193l2.813 2.813a.844.844 0 0 0 1.441-.596v-1.968h5.063A6.195 6.195 0 0 0 18 9a.844.844 0 0 0-.844-.844Z"/></g><defs><clipPath id="a"><path fill="#fff" d="M0 0h18v18H0z"/></clipPath></defs></svg>