<svg width="39" height="53" viewBox="0 0 39 53" fill="none" xmlns="http://www.w3.org/2000/svg">
<g clip-path="url(#clip0_1_18)">
<mask id="mask0_1_18" style="mask-type:luminance" maskUnits="userSpaceOnUse" x="0" y="0" width="39" height="53">
<path d="M38.5 0.5H0.5V52.5H38.5V0.5Z" fill="white"/>
</mask>
<g mask="url(#mask0_1_18)">
<path d="M36.2988 24.2001C35.4627 22.9753 35.5686 22.1387 35.7779 20.4705C35.9109 19.4091 36.0771 18.0864 36.018 16.3013C35.9478 14.1533 35.1278 12.3457 34.421 11.0104C33.532 9.33343 32.1812 7.87 30.5054 6.74448C30.4524 5.98451 30.115 3.57519 27.9713 1.99871C25.7056 0.333043 22.2431 0.214963 17.7008 1.60804C15.8353 0.498855 12.7041 -0.325185 8.28482 1.92837C1.12711 5.58002 -0.629992 18.1366 1.13819 23.5481C1.79942 25.5718 2.59116 27.0955 3.32626 28.2148C2.88175 29.7548 2.3412 33.3047 5.5722 36.1286C5.57467 36.1311 5.57836 36.1324 5.58205 36.1336C5.64608 36.783 5.85787 37.4852 6.22727 38.2377C6.31839 38.4223 6.42428 38.607 6.54126 38.7916L6.16817 40.2036C5.89235 41.2411 4.95654 44.0876 4.27808 45.747C4.09954 46.1841 4.30147 46.6866 4.72998 46.8687C4.83587 46.914 4.94546 46.9353 5.05381 46.9353C5.38258 46.9353 5.69534 46.7369 5.82955 46.4077C6.53264 44.6906 7.50416 41.7323 7.79106 40.6508L7.8674 40.3593C8.42519 40.8907 9.0938 41.4195 9.87077 41.9421C9.71439 42.0539 9.58879 42.2059 9.53338 42.3956C9.47059 42.6179 9.49768 42.8566 9.6085 43.0588C10.7352 45.0888 12.5982 46.4605 14.9968 47.0496C17.1085 50.2541 20.619 50.8194 22.8145 50.8194C23.8697 50.8194 24.6135 50.6912 24.7612 50.6636C25.4569 51.2615 26.4358 51.6032 27.6327 51.1548C29.0979 50.6071 30.7442 52.2363 30.759 52.2514C30.9179 52.4134 31.1321 52.5001 31.3513 52.5001C31.4325 52.5001 31.5138 52.4876 31.5939 52.4637C31.8881 52.3732 32.1122 52.1245 32.1738 51.8155C32.1935 51.7188 32.6356 49.4263 31.0976 48.0721C29.7678 46.9014 27.4824 46.9077 24.3056 48.0822C23.3181 46.9868 22.3343 46.2319 21.396 45.7181C21.9378 42.0815 22.3183 40.8015 22.5374 40.3669C22.961 40.4209 23.8168 40.6068 24.531 40.76C28.156 41.5451 31.0225 42.0664 32.2354 41.1105C32.5998 40.8216 32.8116 40.4045 32.8313 39.9373C32.8991 38.3118 34.1464 36.6788 34.746 35.8937C34.8938 35.7002 35.0108 35.5457 35.0822 35.4364C35.4688 34.8448 35.2928 34.2242 34.9701 33.7117C35.4233 33.3939 35.7139 32.9216 35.6659 32.2923C35.6326 31.8752 35.6351 31.2723 35.6449 30.7974C36.4354 30.7057 37.4513 30.5512 37.8822 30.3314C38.1667 30.1857 38.3711 29.9181 38.456 29.579C38.7565 28.3793 37.4808 25.9311 36.2988 24.1988V24.2001ZM24.3758 13.2275C24.2588 13.112 24.1098 13.0316 23.9424 13.0002C22.5892 12.7489 21.3455 12.705 20.2016 12.8457C21.6546 10.8735 24.0606 8.18027 26.5454 7.90015C27.6696 7.77453 28.7002 8.15892 29.689 9.07717C29.6459 9.84469 29.0943 12.1058 24.3758 13.2275ZM17.537 43.1719C16.4264 42.3855 14.2087 40.554 13.8135 38.2402C13.6128 37.0606 13.9255 35.8723 14.7456 34.6966C15.7984 35.405 17.9212 37.0845 18.3903 39.3469C18.6477 40.5892 18.3608 41.873 17.537 43.1731V43.1719ZM8.32422 32.8814C8.29098 32.8563 8.25404 32.8387 8.21833 32.8186C8.20971 32.8136 8.20601 32.8048 8.19616 32.7998C7.52263 32.4568 7.88341 30.6505 8.24295 29.682C9.11227 29.0451 10.1367 28.1193 10.9026 26.9222C13.2545 27.7412 14.6003 29.6996 14.886 32.7922C14.5486 32.6377 14.1496 32.7181 13.9058 33.0095C13.1092 33.9579 12.5785 34.9327 12.3002 35.9251L8.32176 32.8814H8.32422ZM13.0858 11.7716C13.2064 13.2137 13.6103 14.7651 14.4242 16.3868C13.1055 18.3954 12.8789 20.4994 12.8678 20.6175C12.8457 20.8486 12.9158 21.0785 13.0611 21.2556C13.167 21.3838 13.3123 21.4604 13.4675 21.5081C11.7018 22.4151 10.2833 22.5407 9.51122 22.5156C9.66391 16.5651 11.5934 13.3682 13.0858 11.7704V11.7716ZM8.4572 24.1084C8.50769 24.1209 8.95097 24.229 9.68853 24.229C9.85722 24.229 10.0431 24.2227 10.2402 24.2089C9.78704 26.3795 7.8477 27.9309 6.69394 28.677C5.81354 25.0492 6.84909 22.3912 7.93635 20.7494C7.8674 21.5458 7.81938 22.3774 7.81938 23.2755C7.81938 23.6687 8.08288 24.0117 8.45597 24.1071L8.4572 24.1084ZM14.1952 26.9938C13.4946 26.2841 12.6499 25.7339 11.666 25.3595C11.8224 24.9048 11.9271 24.4187 11.9788 23.9087C13.2594 23.5707 14.7998 22.8974 16.4695 21.5961C17.5395 21.542 18.5098 21.3988 19.3803 21.1702C18.6785 24.6925 16.2749 26.2815 14.1952 26.995V26.9938ZM14.716 19.899C14.9943 18.8149 15.6777 16.9797 17.271 15.7625C18.7252 14.6508 20.6609 14.2563 23.0324 14.5879C23.0657 15.319 22.9635 16.6393 22.0117 17.7648C20.7262 19.2847 18.2155 20.0158 14.7173 19.899H14.716ZM26.9702 3.37672C28.2988 4.34271 28.6793 5.76719 28.7889 6.50456C28.0144 6.20559 27.2042 6.09882 26.3607 6.19554C22.4057 6.64022 18.9974 11.4362 17.6786 13.5441C17.1713 13.779 16.6911 14.0604 16.2466 14.402C16.0225 14.5754 15.8168 14.7588 15.6198 14.946C13.034 8.94779 16.7539 4.31256 17.5309 3.44204C21.811 2.02007 25.0727 1.9962 26.969 3.37672H26.9702ZM9.03716 3.46339C12.1426 1.88063 14.4353 2.05147 15.9855 2.66322C15.1507 3.72091 13.502 6.1767 13.1239 9.449C11.8692 10.3949 9.49891 12.7627 8.40303 17.648C7.47214 18.4531 4.1611 21.7531 4.7583 27.3154C4.09584 26.3167 3.35951 24.9224 2.73399 23.0067C1.16897 18.2157 2.75493 6.66911 9.03716 3.46465V3.46339ZM4.69673 29.9684C5.24836 30.5537 5.63131 30.8238 5.67317 30.8514C5.81231 30.9469 5.97485 30.9959 6.13985 30.9959C6.15708 30.9959 6.17432 30.9896 6.19156 30.9884C6.08444 31.8061 6.1066 32.7168 6.50309 33.4303C6.31469 33.6125 6.13123 33.8411 5.97485 34.1187C4.78785 32.7131 4.58098 31.1894 4.69796 29.9684H4.69673ZM7.73195 37.4714C7.26035 36.5105 7.12737 35.704 7.34532 35.1425C7.44505 34.8875 7.60513 34.7079 7.75165 34.5873L12.0872 37.9048C12.1007 38.1171 12.1216 38.3294 12.1586 38.5417C12.3347 39.5667 12.7681 40.495 13.3099 41.314C12.8654 41.2738 12.4578 41.2813 12.0859 41.314C9.83875 40.0214 8.33161 38.6949 7.73195 37.4727V37.4714ZM11.6599 43.0952C12.5218 42.9231 13.9194 42.8867 15.5386 43.7723C16.068 44.222 16.547 44.5675 16.8795 44.7885C15.9166 44.9041 15.2554 45.183 15.0559 45.2772C13.6399 44.8664 12.491 44.1479 11.6599 43.0952ZM29.998 49.366C30.1717 49.5167 30.2948 49.7026 30.381 49.9011C29.7801 49.5858 29.0475 49.3271 28.2619 49.3271C27.8703 49.3271 27.4652 49.3911 27.0564 49.5431C26.5171 49.7441 26.1194 49.6034 25.8386 49.366C27.8321 48.7542 29.29 48.7505 29.9968 49.366H29.998ZM16.7009 46.5233C17.9667 46.2658 20.3592 46.3085 22.9499 49.106C21.1953 49.1386 18.4716 48.7693 16.7009 46.5233ZM34.7547 29.1657C34.3348 29.2034 34.0073 29.5526 33.9888 29.9809C33.9863 30.0412 33.926 31.4217 33.9826 32.3174C33.8607 32.3865 33.612 32.4606 33.415 32.4807C33.0739 32.5121 32.7858 32.7533 32.686 33.0887C32.5875 33.4241 32.6984 33.7858 32.9655 34.0044C33.1958 34.1928 33.4495 34.4717 33.5627 34.6513C33.5209 34.7066 33.4729 34.7694 33.4199 34.8385C32.7217 35.753 31.2762 37.646 31.1555 39.789C30.3613 40.2664 26.394 39.4097 24.8807 39.0818C22.998 38.6748 22.3798 38.5517 21.9402 38.6899C21.1165 38.9487 20.5661 40.0026 19.7977 45.0435C19.3335 44.9054 18.8915 44.8225 18.4728 44.7785C19.9086 42.8679 20.4368 40.9183 20.0317 38.9801C19.5601 36.7202 17.9175 35.0081 16.6221 33.9642C16.6012 31.7345 16.137 29.8578 15.2689 28.3931C18.6723 27.0264 20.7532 24.2679 21.1731 20.507C22.0166 20.0836 22.7234 19.546 23.2824 18.884C24.4386 17.5161 24.696 15.966 24.7107 14.9095C29.8922 13.6936 31.0755 11.0845 31.3143 9.61607C31.9669 10.2868 32.5186 11.0267 32.9409 11.8244C33.5997 13.0667 34.2794 14.5766 34.3385 16.3566C34.3914 18.0047 34.2424 19.1981 34.1095 20.252C34.0491 20.7293 33.9962 21.1778 33.9691 21.6162L32.6429 21.4189C32.1812 21.3524 31.7564 21.6752 31.6899 22.1437C31.6222 22.6123 31.9411 23.0482 32.4004 23.116L33.9678 23.3484C34.0085 23.3547 34.0491 23.3572 34.0898 23.3572C34.2264 23.9388 34.4801 24.5342 34.9197 25.1786C36.0746 26.8707 36.6435 28.2562 36.7876 28.8893C36.3012 28.9898 35.4602 29.1004 34.7547 29.1644V29.1657Z" fill="#DD9933"/>
</g>
</g>
<defs>
<clipPath id="clip0_1_18">
<rect width="38" height="52" fill="white" transform="translate(0.5 0.5)"/>
</clipPath>
</defs>
</svg>
