<svg width="51" height="51" viewBox="0 0 51 51" fill="none" xmlns="http://www.w3.org/2000/svg">
<g clip-path="url(#clip0_1_34)">
<path d="M18.1357 39.403C18.1675 39.4064 18.1984 39.4076 18.2279 39.4076C18.6997 39.4076 19.103 39.0499 19.1503 38.5711C19.2004 38.0611 18.8278 37.6071 18.3184 37.5569C16.9855 37.426 15.8221 37.2514 14.8602 37.0386C14.3561 36.9277 13.8642 37.2449 13.754 37.7442C13.6435 38.2449 13.9599 38.7397 14.4596 38.8503C15.4959 39.0789 16.7328 39.2649 18.1357 39.403Z" fill="#DD9933"/>
<path d="M18.1357 39.403C18.1675 39.4064 18.1984 39.4076 18.2279 39.4076C18.6997 39.4076 19.103 39.0499 19.1503 38.5711C19.2004 38.0611 18.8278 37.6071 18.3184 37.5569C16.9855 37.426 15.8221 37.2514 14.8602 37.0386C14.3561 36.9277 13.8642 37.2449 13.754 37.7442C13.6435 38.2449 13.9599 38.7397 14.4596 38.8503C15.4959 39.0789 16.7328 39.2649 18.1357 39.403ZM18.1357 39.403C18.1356 39.403 18.1359 39.4031 18.1357 39.403ZM18.1357 39.403L18.1459 39.3035" stroke="#DD9933" stroke-width="0.2"/>
<path d="M23.8702 38.7768C23.8835 38.2645 23.4788 37.8388 22.9666 37.826L22.965 37.8259C22.4783 37.8134 22.0119 37.7972 21.5666 37.7784C21.0664 37.7594 20.6221 38.1523 20.6001 38.6653C20.5778 39.1772 20.9752 39.6103 21.487 39.6319M23.8702 38.7768C23.8574 39.2808 23.4449 39.6808 22.9434 39.6808H22.9417L22.9202 39.6804C22.4213 39.6678 21.944 39.6519 21.487 39.6319M21.487 39.6319C21.4869 39.6319 21.4871 39.6319 21.487 39.6319Z" fill="#DD9933"/>
<path d="M23.8702 38.7768C23.8835 38.2645 23.4788 37.8388 22.9666 37.826L22.965 37.8259C22.4783 37.8134 22.0119 37.7972 21.5666 37.7784C21.0664 37.7594 20.6221 38.1523 20.6001 38.6653C20.5778 39.1772 20.9752 39.6103 21.487 39.6319M23.8702 38.7768L23.7702 38.7742M23.8702 38.7768C23.8574 39.2808 23.4449 39.6808 22.9434 39.6808H22.9417L22.9202 39.6804C22.4213 39.6678 21.944 39.6519 21.487 39.6319M21.487 39.6319C21.4871 39.6319 21.4869 39.6319 21.487 39.6319ZM21.487 39.6319L21.4914 39.532" stroke="#DD9933" stroke-width="0.2"/>
<path d="M31.4984 26.3915C31.0607 26.2072 30.8282 25.7154 30.9754 25.2542C31.132 24.7672 31.6533 24.4984 32.1413 24.6532C33.4062 25.058 34.5254 25.5834 35.3761 26.1745L31.4984 26.3915ZM31.4984 26.3915L31.4979 26.3956L31.5762 26.4207C32.6734 26.7715 33.6209 27.214 34.318 27.6984C34.479 27.8101 34.6639 27.8641 34.8462 27.8641C35.1395 27.8641 35.4283 27.725 35.6088 27.4654C35.9007 27.0448 35.7968 26.4665 35.3761 26.1745L31.4984 26.3915Z" fill="#DD9933"/>
<path d="M31.4984 26.3915C31.0607 26.2072 30.8282 25.7154 30.9754 25.2542C31.132 24.7672 31.6533 24.4984 32.1413 24.6532C33.4062 25.058 34.5254 25.5834 35.3761 26.1745M31.4984 26.3915L35.3761 26.1745M31.4984 26.3915L31.4979 26.3956L31.5762 26.4207C32.6734 26.7715 33.6209 27.214 34.318 27.6984C34.479 27.8101 34.6639 27.8641 34.8462 27.8641C35.1395 27.8641 35.4283 27.725 35.6088 27.4654C35.9007 27.0448 35.7968 26.4665 35.3761 26.1745" stroke="#DD9933" stroke-width="0.2"/>
<path d="M47.8452 41.224H39.3764C41.5473 40.2789 42.8796 38.8288 42.8796 36.6147C42.8796 34.6022 41.6722 32.729 39.4599 31.2574C39.9639 30.6216 40.2742 29.8498 40.3248 28.9018C40.4663 26.2279 38.4051 23.8087 34.8158 22.2448C35.7594 21.8835 36.475 21.4301 36.9849 20.873C37.6799 20.113 37.9947 19.1764 37.9204 18.0873C37.7368 15.5192 35.4022 13.5573 31.6761 12.6935C33.9579 10.4021 33.7794 6.64766 33.7706 6.48876C33.7473 6.06758 33.4108 5.73137 32.99 5.70809C32.8765 5.70329 30.9339 5.61499 28.9979 6.38938C28.2675 3.72036 26.1542 1.80139 26.0525 1.71087C25.7389 1.42971 25.263 1.42971 24.9493 1.71087C24.8477 1.80139 22.7348 3.71999 22.004 6.389C20.0683 5.61387 18.1257 5.70143 18.0116 5.70845C17.5904 5.73173 17.2542 6.06831 17.2309 6.48912C17.222 6.64836 17.0425 10.4121 19.3332 12.7023C19.5393 12.9085 19.7595 13.091 19.986 13.2591C17.5834 14.0117 15.8255 15.1145 14.9702 16.469C14.4245 17.3332 14.262 18.2835 14.4984 19.2138C14.7873 20.3691 15.564 21.2063 16.6453 21.8159C13.4388 23.0684 11.5667 25.0369 11.4433 27.3719C11.3805 28.5604 11.7932 29.5816 12.6444 30.4392C9.28382 32.0219 7.4494 34.1833 7.4494 36.6147C7.4494 38.83 8.90474 40.2798 11.2183 41.2241H3.15519C2.24225 41.2241 1.5 41.9663 1.5 42.8793V44.5344C1.5 45.4474 2.24225 46.1896 3.15519 46.1896H4.81037V48.6724C4.81037 49.1294 5.18095 49.5 5.63797 49.5H8.94834C9.40536 49.5 9.77593 49.1294 9.77593 48.6724V46.1896H41.2245V48.6724C41.2245 49.1294 41.595 49.5 42.0521 49.5H45.3624C45.8195 49.5 46.19 49.1294 46.19 48.6724V46.1896H47.8452C48.7581 46.1896 49.5004 45.4474 49.5004 44.5344V42.8793C49.5004 41.9663 48.7581 41.224 47.8452 41.224ZM30.4979 11.5319C29.2838 12.7459 27.4073 13.0566 26.3462 13.132C26.4219 12.0709 26.7327 10.1941 27.9463 8.98034C29.1612 7.7659 31.0398 7.4552 32.1002 7.3802C32.027 8.43867 31.7193 10.3107 30.4979 11.5319ZM25.5017 3.51529C26.1508 4.24572 27.1706 5.61312 27.4857 7.21506C27.2393 7.39387 26.9992 7.5871 26.776 7.81026C26.2152 8.37111 25.8036 9.02101 25.5003 9.68412C25.1969 9.02094 24.7857 8.37142 24.2245 7.81026C24.0014 7.5871 23.7616 7.39388 23.5152 7.21506C23.8311 5.62012 24.8526 4.2483 25.5017 3.51529ZM18.9027 7.37802C19.9612 7.45118 21.8332 7.75893 23.0544 8.98034C24.2684 10.1944 24.5791 12.0709 24.6545 13.132C23.5934 13.0563 21.7166 12.7456 20.5028 11.5319C19.2888 10.3178 18.9777 8.43838 18.9027 7.37802ZM16.3697 17.3526C17.1747 16.0769 19.3664 14.9711 22.2448 14.3708C23.5213 14.7587 24.7028 14.8112 25.2426 14.8112H25.7576C26.4301 14.8112 28.0952 14.7288 29.7006 14.0198C33.561 14.5089 36.1196 16.1209 36.2685 18.2031C36.3117 18.8379 36.1513 19.3319 35.763 19.7564C34.6716 20.9501 31.7873 21.5804 26.9491 21.6831C20.1699 21.791 16.6132 20.8533 16.1024 18.8086C15.9765 18.3128 16.0642 17.8362 16.3697 17.3526ZM13.0955 27.4597C13.199 25.5068 15.3589 23.7732 18.8743 22.8222C18.9475 22.8023 19.0066 22.7616 19.069 22.7251C21.0737 23.2157 23.4789 23.3483 25.8058 23.3483C26.2008 23.3483 26.5931 23.3447 26.9803 23.3387C28.9067 23.2977 30.5316 23.1747 31.8994 22.966C36.2087 24.1653 38.8002 26.3934 38.6719 28.8153C38.5256 31.5756 34.6101 32.6034 25.9733 32.1456C21.6329 31.9158 18.491 31.4477 16.3685 30.7147C12.9853 29.5468 13.0678 27.9762 13.0955 27.4597ZM9.10427 36.6153C9.10427 34.714 10.9674 32.8893 14.2076 31.5685C14.6905 31.8271 15.2192 32.0684 15.8277 32.2786C18.1302 33.0733 21.3265 33.5562 25.8856 33.7975C27.1491 33.8648 28.4182 33.9098 29.6522 33.9098C33.0446 33.9098 36.1599 33.5614 38.1406 32.3828C39.6336 33.2784 41.2238 34.6809 41.2238 36.6146C41.2238 39.5274 37.2421 40.9753 28.4429 41.224H22.6439C13.5514 40.9687 9.10352 39.4572 9.10352 36.6146L9.10427 36.6153ZM8.12081 47.8451H6.46563V46.1899H8.12081V47.8451ZM44.5349 47.8451H42.8797V46.1899H44.5349V47.8451ZM3.15525 44.5347V42.8795H22.188C23.2956 42.9109 24.4184 42.9227 25.5383 42.9227C26.6578 42.9227 27.7683 42.9109 28.8527 42.8795H47.8448L47.8459 44.5347H3.15525Z" fill="#DD9933"/>
<mask id="mask0_1_34" style="mask-type:luminance" maskUnits="userSpaceOnUse" x="0" y="0" width="51" height="51">
<path d="M50.5 0.5H0.5V50.5H50.5V0.5Z" fill="white" stroke="#00C3FF" stroke-width="0.4"/>
<path d="M47.8452 41.224H39.3764C41.5473 40.2789 42.8796 38.8288 42.8796 36.6147C42.8796 34.6022 41.6722 32.729 39.4599 31.2574C39.9639 30.6216 40.2742 29.8498 40.3248 28.9018C40.4663 26.2279 38.4051 23.8087 34.8158 22.2448C35.7594 21.8835 36.475 21.4301 36.9849 20.873C37.6799 20.113 37.9947 19.1764 37.9204 18.0873C37.7368 15.5192 35.4022 13.5573 31.6761 12.6935C33.9579 10.4021 33.7794 6.64766 33.7706 6.48876C33.7473 6.06758 33.4108 5.73137 32.99 5.70809C32.8765 5.70329 30.9339 5.61499 28.9979 6.38938C28.2675 3.72036 26.1542 1.80139 26.0525 1.71087C25.7389 1.42971 25.263 1.42971 24.9493 1.71087C24.8477 1.80139 22.7348 3.71999 22.004 6.389C20.0683 5.61387 18.1257 5.70143 18.0116 5.70845C17.5904 5.73173 17.2542 6.06831 17.2309 6.48912C17.222 6.64836 17.0425 10.4121 19.3332 12.7023C19.5393 12.9085 19.7595 13.091 19.986 13.2591C17.5834 14.0117 15.8255 15.1145 14.9702 16.469C14.4245 17.3332 14.262 18.2835 14.4984 19.2138C14.7873 20.3691 15.564 21.2063 16.6453 21.8159C13.4388 23.0684 11.5667 25.0369 11.4433 27.3719C11.3805 28.5604 11.7932 29.5816 12.6444 30.4392C9.28382 32.0219 7.4494 34.1833 7.4494 36.6147C7.4494 38.83 8.90474 40.2798 11.2183 41.2241H3.15519C2.24225 41.2241 1.5 41.9663 1.5 42.8793V44.5344C1.5 45.4474 2.24225 46.1896 3.15519 46.1896H4.81037V48.6724C4.81037 49.1294 5.18095 49.5 5.63797 49.5H8.94834C9.40536 49.5 9.77593 49.1294 9.77593 48.6724V46.1896H41.2245V48.6724C41.2245 49.1294 41.595 49.5 42.0521 49.5H45.3624C45.8195 49.5 46.19 49.1294 46.19 48.6724V46.1896H47.8452C48.7581 46.1896 49.5004 45.4474 49.5004 44.5344V42.8793C49.5004 41.9663 48.7581 41.224 47.8452 41.224ZM30.4979 11.5319C29.2838 12.7459 27.4073 13.0566 26.3462 13.132C26.4219 12.0709 26.7327 10.1941 27.9463 8.98034C29.1612 7.7659 31.0398 7.4552 32.1002 7.3802C32.027 8.43867 31.7193 10.3107 30.4979 11.5319ZM25.5017 3.51529C26.1508 4.24572 27.1706 5.61312 27.4857 7.21506C27.2393 7.39387 26.9992 7.5871 26.776 7.81026C26.2152 8.37111 25.8036 9.02101 25.5003 9.68412C25.1969 9.02094 24.7857 8.37142 24.2245 7.81026C24.0014 7.5871 23.7616 7.39388 23.5152 7.21506C23.8311 5.62012 24.8526 4.2483 25.5017 3.51529ZM18.9027 7.37802C19.9612 7.45118 21.8332 7.75893 23.0544 8.98034C24.2684 10.1944 24.5791 12.0709 24.6545 13.132C23.5934 13.0563 21.7166 12.7456 20.5028 11.5319C19.2888 10.3178 18.9777 8.43838 18.9027 7.37802ZM16.3697 17.3526C17.1747 16.0769 19.3664 14.9711 22.2448 14.3708C23.5213 14.7587 24.7028 14.8112 25.2426 14.8112H25.7576C26.4301 14.8112 28.0952 14.7288 29.7006 14.0198C33.561 14.5089 36.1196 16.1209 36.2685 18.2031C36.3117 18.8379 36.1513 19.3319 35.763 19.7564C34.6716 20.9501 31.7873 21.5804 26.9491 21.6831C20.1699 21.791 16.6132 20.8533 16.1024 18.8086C15.9765 18.3128 16.0642 17.8362 16.3697 17.3526ZM13.0955 27.4597C13.199 25.5068 15.3589 23.7732 18.8743 22.8222C18.9475 22.8023 19.0066 22.7616 19.069 22.7251C21.0737 23.2157 23.4789 23.3483 25.8058 23.3483C26.2008 23.3483 26.5931 23.3447 26.9803 23.3387C28.9067 23.2977 30.5316 23.1747 31.8994 22.966C36.2087 24.1653 38.8002 26.3934 38.6719 28.8153C38.5256 31.5756 34.6101 32.6034 25.9733 32.1456C21.6329 31.9158 18.491 31.4477 16.3685 30.7147C12.9853 29.5468 13.0678 27.9762 13.0955 27.4597ZM9.10427 36.6153C9.10427 34.714 10.9674 32.8893 14.2076 31.5685C14.6905 31.8271 15.2192 32.0684 15.8277 32.2786C18.1302 33.0733 21.3265 33.5562 25.8856 33.7975C27.1491 33.8648 28.4182 33.9098 29.6522 33.9098C33.0446 33.9098 36.1599 33.5614 38.1406 32.3828C39.6336 33.2784 41.2238 34.6809 41.2238 36.6146C41.2238 39.5274 37.2421 40.9753 28.4429 41.224H22.6439C13.5514 40.9687 9.10352 39.4572 9.10352 36.6146L9.10427 36.6153ZM8.12081 47.8451H6.46563V46.1899H8.12081V47.8451ZM44.5349 47.8451H42.8797V46.1899H44.5349V47.8451ZM3.15525 44.5347V42.8795H22.188C23.2956 42.9109 24.4184 42.9227 25.5383 42.9227C26.6578 42.9227 27.7683 42.9109 28.8527 42.8795H47.8448L47.8459 44.5347H3.15525Z" stroke="#00C3FF" stroke-width="0.4"/>
</mask>
<g mask="url(#mask0_1_34)">
<path d="M47.8452 41.224H39.3764C41.5473 40.2789 42.8796 38.8288 42.8796 36.6147C42.8796 34.6022 41.6722 32.729 39.4599 31.2574C39.9639 30.6216 40.2742 29.8498 40.3248 28.9018C40.4663 26.2279 38.4051 23.8087 34.8158 22.2448C35.7594 21.8835 36.475 21.4301 36.9849 20.873C37.6799 20.113 37.9947 19.1764 37.9204 18.0873C37.7368 15.5192 35.4022 13.5573 31.6761 12.6935C33.9579 10.4021 33.7794 6.64766 33.7706 6.48876C33.7473 6.06758 33.4108 5.73137 32.99 5.70809C32.8765 5.70329 30.9339 5.61499 28.9979 6.38938C28.2675 3.72036 26.1542 1.80139 26.0525 1.71087C25.7389 1.42971 25.263 1.42971 24.9493 1.71087C24.8477 1.80139 22.7348 3.71999 22.004 6.389C20.0683 5.61387 18.1257 5.70143 18.0116 5.70845C17.5904 5.73173 17.2542 6.06831 17.2309 6.48912C17.222 6.64836 17.0425 10.4121 19.3332 12.7023C19.5393 12.9085 19.7595 13.091 19.986 13.2591C17.5834 14.0117 15.8255 15.1145 14.9702 16.469C14.4245 17.3332 14.262 18.2835 14.4984 19.2138C14.7873 20.3691 15.564 21.2063 16.6453 21.8159C13.4388 23.0684 11.5667 25.0369 11.4433 27.3719C11.3805 28.5604 11.7932 29.5816 12.6444 30.4392C9.28382 32.0219 7.4494 34.1833 7.4494 36.6147C7.4494 38.83 8.90474 40.2798 11.2183 41.2241H3.15519C2.24225 41.2241 1.5 41.9663 1.5 42.8793V44.5344C1.5 45.4474 2.24225 46.1896 3.15519 46.1896H4.81037V48.6724C4.81037 49.1294 5.18095 49.5 5.63797 49.5H8.94834C9.40536 49.5 9.77593 49.1294 9.77593 48.6724V46.1896H41.2245V48.6724C41.2245 49.1294 41.595 49.5 42.0521 49.5H45.3624C45.8195 49.5 46.19 49.1294 46.19 48.6724V46.1896H47.8452C48.7581 46.1896 49.5004 45.4474 49.5004 44.5344V42.8793C49.5004 41.9663 48.7581 41.224 47.8452 41.224ZM30.4979 11.5319C29.2838 12.7459 27.4073 13.0566 26.3462 13.132C26.4219 12.0709 26.7327 10.1941 27.9463 8.98034C29.1612 7.7659 31.0398 7.4552 32.1002 7.3802C32.027 8.43867 31.7193 10.3107 30.4979 11.5319ZM25.5017 3.51529C26.1508 4.24572 27.1706 5.61312 27.4857 7.21506C27.2393 7.39387 26.9992 7.5871 26.776 7.81026C26.2152 8.37111 25.8036 9.02101 25.5003 9.68412C25.1969 9.02094 24.7857 8.37142 24.2245 7.81026C24.0014 7.5871 23.7616 7.39388 23.5152 7.21506C23.8311 5.62012 24.8526 4.2483 25.5017 3.51529ZM18.9027 7.37802C19.9612 7.45118 21.8332 7.75893 23.0544 8.98034C24.2684 10.1944 24.5791 12.0709 24.6545 13.132C23.5934 13.0563 21.7166 12.7456 20.5028 11.5319C19.2888 10.3178 18.9777 8.43838 18.9027 7.37802ZM16.3697 17.3526C17.1747 16.0769 19.3664 14.9711 22.2448 14.3708C23.5213 14.7587 24.7028 14.8112 25.2426 14.8112H25.7576C26.4301 14.8112 28.0952 14.7288 29.7006 14.0198C33.561 14.5089 36.1196 16.1209 36.2685 18.2031C36.3117 18.8379 36.1513 19.3319 35.763 19.7564C34.6716 20.9501 31.7873 21.5804 26.9491 21.6831C20.1699 21.791 16.6132 20.8533 16.1024 18.8086C15.9765 18.3128 16.0642 17.8362 16.3697 17.3526ZM13.0955 27.4597C13.199 25.5068 15.3589 23.7732 18.8743 22.8222C18.9475 22.8023 19.0066 22.7616 19.069 22.7251C21.0737 23.2157 23.4789 23.3483 25.8058 23.3483C26.2008 23.3483 26.5931 23.3447 26.9803 23.3387C28.9067 23.2977 30.5316 23.1747 31.8994 22.966C36.2087 24.1653 38.8002 26.3934 38.6719 28.8153C38.5256 31.5756 34.6101 32.6034 25.9733 32.1456C21.6329 31.9158 18.491 31.4477 16.3685 30.7147C12.9853 29.5468 13.0678 27.9762 13.0955 27.4597ZM9.10427 36.6153C9.10427 34.714 10.9674 32.8893 14.2076 31.5685C14.6905 31.8271 15.2192 32.0684 15.8277 32.2786C18.1302 33.0733 21.3265 33.5562 25.8856 33.7975C27.1491 33.8648 28.4182 33.9098 29.6522 33.9098C33.0446 33.9098 36.1599 33.5614 38.1406 32.3828C39.6336 33.2784 41.2238 34.6809 41.2238 36.6146C41.2238 39.5274 37.2421 40.9753 28.4429 41.224H22.6439C13.5514 40.9687 9.10352 39.4572 9.10352 36.6146L9.10427 36.6153ZM8.12081 47.8451H6.46563V46.1899H8.12081V47.8451ZM44.5349 47.8451H42.8797V46.1899H44.5349V47.8451ZM3.15525 44.5347V42.8795H22.188C23.2956 42.9109 24.4184 42.9227 25.5383 42.9227C26.6578 42.9227 27.7683 42.9109 28.8527 42.8795H47.8448L47.8459 44.5347H3.15525Z" stroke="#DD9933" stroke-width="0.4"/>
</g>
</g>
<defs>
<clipPath id="clip0_1_34">
<rect width="50" height="50" fill="white" transform="translate(0.5 0.5)"/>
</clipPath>
</defs>
</svg>
